<svg xmlns="http://www.w3.org/2000/svg" xmlns:xlink="http://www.w3.org/1999/xlink" width="275.252" height="104.402" viewBox="0 0 275.252 104.402"><defs><clipPath id="a"><rect width="275.252" height="104.402" fill="none"></rect></clipPath></defs><g clip-path="url(#a)"><path d="M49.018,12.449c.3-2.54-.075-6.245,1.932-7.988.585-2.707,4.846-2.076,4.181-3.8C54.718-.414,52.717.1,51.9.3a85.742,85.742,0,0,1-8.7,2.248c-.949-.263-1.9-.534-2.855-.8-3.664.493-5.781,3.412-7.821,5.728-1.714,1.944-4.025,6.7-2.185,9.547-.1.619-.206,1.245-.31,1.87l4.167,6.088c1.439,1.026,1.629,1.795,3.177,2.81l.957,1.439c1.267.83,4.994.843,5.625.3,6,.562,5.35-11.6,7.26-14.152a5.044,5.044,0,0,0-2.2-2.928M23.128,48.958a28.623,28.623,0,0,0,4.587-1.068c1.813-.906,8.045-5.269,6.061-8.814C33.163,31.6,24.143,37.919,20.3,35.3c-3.887-.5-8.258-7.85-9.427-11a5.267,5.267,0,0,0-.888-1.807c0-.1-.4.344-.4.237C8.453,24.049,8.648,25.2,8.47,28.43c-.51-.029-1.015-.063-1.531-.1a3.624,3.624,0,0,1-.763,2.408c-.109.2-.229.39-.338.593-.969-.327-.482.138-.878-.671-3.578.178-3.315,3.774-4.96,5.82C.083,43.2,13.375,51.487,23.128,48.958m44.148-20.39A26.7,26.7,0,0,0,55.739,32.8a8.112,8.112,0,0,0-2.305,2.23,3.645,3.645,0,0,0-.39,2.491,4.009,4.009,0,0,0,1.5,2.758c7.117-.528,19.484-.975,21.894,5.006.131.83.315,1.33.332,1.531,2.357-.579.638-.373,4.106.172a15.633,15.633,0,0,0,4.06-.637,1.648,1.648,0,0,0,.923-.676,3.989,3.989,0,0,1-.075-.878,3.313,3.313,0,0,0,1.72-.293c3.291-.534,1.56-2.082,3.114-3.825C89.674,29.508,78.205,26.91,67.276,28.567M54.569,52.891c-1.651,1.261-2.345.949-3.314,2.9-.1,0,.149.3.046.3.986,1.967,3.246,2.758,4.9,4.14.516.435,1.916,2.861,2.58,3.039.745.888,1.232,3.36,1.72,3.36.51.694-.041,2.329.459,2.959.041,2.924-.372,3.131-.878,3.693,0,.206.281.734.281.935.138.137,1.3.981,1.823.878,1.589.052,8.114,5.138,8.63,6.119,4.679.35,4.341-1.078,7.57-2.448.872-.373,1.566-.018,2.135-.619.593-.613.648-1.823,1.227-2.448.078-11.5-15.588-22.4-27.182-22.806M36.133,55.518c-.654.694-2.443.949-2.942,1.743a33.36,33.36,0,0,1-3.9,5.235c-4.433,4.209-13.917,6.319-18.6,2.3-.3.022-.126.195.237,1.347.344,2.179,2.1,7.289,1.451,8.6.419,1.451.86.917,1.651,1.72.544.544.768,1.967,1.394,2.351q1.067-.069,2.135-.149c.126.4.263.8.39,1.2.912-.069,1.829-.131,2.746-.2.516.119,2.07.923,2.529,1.044,1.015-.075,2.036-.138,3.051-.213,2.329.619,4.358-.356,6.325-1.68,1.095-.734,2.294-.619,3.268-1.451A22.569,22.569,0,0,0,40.1,72.158c2.208-4.008,1.457-13.6-.539-15.969-.785-.848-1.708-.865-3.424-.67" transform="translate(0 0)" fill="#fe5815" fill-rule="evenodd"></path><path d="M468.426,99.584c9.639,0,16.153,6.09,16.153,16.985,0,13.7-8.951,17.748-18.332,17.748H453.689c.046-.757,0-2.786,0-5.327V104.9c0-2.535.046-4.152,0-5.322h14.737Zm-2.815,28.144c5.322,0,9.645-1.76,9.645-11.151,0-7.988-4.33-10.648-9.645-10.648h-2.792v21.807h2.792Z" transform="translate(-319.953 -70.225)" fill="#09357a"></path><path d="M582.8,129.009c0,2.54.126,5.327.126,5.327h-9.318s.063-2.787.063-5.327V104.92c0-2.535-.063-5.322-.063-5.322h22.025v6.72s-4.919-.126-6.594-.126H582.8v7l6.239.063c1.17,0,5.19-.063,5.19-.063v6.4s-3.567-.1-5.19-.1l-6.239.04Z" transform="translate(-404.526 -70.239)" fill="#09357a"></path><path d="M348.21,125.543a7.333,7.333,0,0,1-7.744-6.9q-.019-.327-.009-.655v-.39s8.137-.2,10.895-.2c4.7,0,6.629-.046,10.327-.091v-2.621c0-11.841-5.022-17.6-15.356-17.6-4.765,0-15.849,1.789-15.849,18.367,0,11.056,5.585,17.661,15.344,17.661,7.661,0,12.369-1.955,15.777-4.444-.384-.573-3.24-5.706-3.612-6.262a16.167,16.167,0,0,1-9.774,3.131m-7.758-14.591c.138-2.017.854-6.68,5.931-6.68,5.2,0,5.488,4.389,5.488,6.7v.474s-3.469.091-5.551.091-5.9-.091-5.9-.091Z" transform="translate(-233.059 -68.47)" fill="#09357a"></path><path d="M337.167,297.612c0-1.261-.1-2.517-.138-3.745h2.758l.1,2.728h.069c.917-2.11,2.386-2.958,4.937-2.958v2.827a5.644,5.644,0,0,0-1.089-.1c-2.213,0-3.778,1.9-3.778,5.682v9.192h-2.861Z" transform="translate(-237.681 -207.08)" fill="#09357a"></path><path d="M371.8,303.355c0,4.02,1.566,5.888,4.731,5.888a7.421,7.421,0,0,0,3.984-1.431l.138,2.586a11.71,11.71,0,0,1-4.863,1.02c-4.6,0-6.979-3.475-6.979-8.922s2.379-8.917,6.709-8.917c3.915,0,6.1,3.131,6.1,8.24v1.535H371.8Zm6.944-2.179c0-3.607-1.123-5.413-3.406-5.413-1.835,0-3.475,1.364-3.539,5.413Z" transform="translate(-260.093 -207.04)" fill="#09357a"></path><path d="M422.622,297.574c0-1.261-.1-2.517-.138-3.744h2.758l.1,2.586h.069a4.465,4.465,0,0,1,4.389-2.827c3.027,0,5.069,1.738,5.069,5.551v12.048h-2.861v-11.2c0-2.758-1.02-3.951-2.861-3.951-2.248,0-3.677,1.566-3.677,4.7V311.18h-2.861V297.574Z" transform="translate(-297.946 -207.042)" fill="#09357a"></path><path d="M482.709,293.6c4.593,0,6.979,3.474,6.979,8.917s-2.38,8.923-6.979,8.923-6.979-3.475-6.979-8.923,2.38-8.917,6.979-8.917m0,15.522c2.728,0,3.986-2.248,3.986-6.606s-1.261-6.6-3.986-6.6-3.986,2.248-3.986,6.6,1.262,6.606,3.986,6.606" transform="translate(-335.497 -207.054)" fill="#09357a"></path><path d="M546.542,308.031c0,1.261.1,2.517.138,3.745h-2.758l-.1-2.586h-.069a4.461,4.461,0,0,1-4.389,2.827c-3.027,0-5.069-1.738-5.069-5.551V294.417h2.861v11.2c0,2.758,1.02,3.951,2.861,3.951,2.248,0,3.677-1.566,3.677-4.7V294.424h2.861v13.608Z" transform="translate(-376.795 -207.63)" fill="#09357a"></path><path d="M583.943,294.417h3.13l3.814,14.5h.069l3.882-14.5h3l-5.207,17.363h-3.406Z" transform="translate(-411.811 -207.63)" fill="#09357a"></path><path d="M639.272,303.349c0,4.02,1.566,5.888,4.731,5.888a7.422,7.422,0,0,0,3.984-1.433l.138,2.586a11.709,11.709,0,0,1-4.863,1.02c-4.6,0-6.979-3.475-6.979-8.922s2.379-8.917,6.709-8.917c3.915,0,6.09,3.13,6.09,8.24v1.538h-9.81Zm6.944-2.179c0-3.607-1.123-5.413-3.406-5.413-1.835,0-3.475,1.364-3.539,5.413Z" transform="translate(-448.723 -207.034)" fill="#09357a"></path><rect width="2.861" height="25.534" transform="translate(203.79 78.616)" fill="#09357a"></rect><path d="M714.654,295.025a9.254,9.254,0,0,1,4.9-1.423,6.58,6.58,0,0,1,4.627,1.635,5.325,5.325,0,0,1,1.5,4.255v9.055a25.919,25.919,0,0,0,.137,2.655h-2.586l-.172-2.351h-.069a5.232,5.232,0,0,1-4.864,2.586,4.626,4.626,0,0,1-5.006-5.006c0-3.371,2.213-5.854,8.171-5.854h1.669V299.8a4.27,4.27,0,0,0-.648-2.792,3.534,3.534,0,0,0-2.9-1.089,6.148,6.148,0,0,0-4.462,1.807Zm8.3,7.661a17.086,17.086,0,0,0-2.007-.069c-3.371,0-4.972,1.6-4.972,3.612a2.7,2.7,0,0,0,2.93,3.027,4.108,4.108,0,0,0,4.063-4.152q0-.119-.009-.236v-2.179Z" transform="translate(-502.899 -207.051)" fill="#09357a"></path><path d="M768.293,266.7h2.861v10.558h.069a4.779,4.779,0,0,1,4.427-2.621c3.573,0,5.993,2.93,5.993,8.917s-2.42,8.923-5.993,8.923a4.913,4.913,0,0,1-4.559-2.793h-.069l-.1,2.552h-2.758c.034-1.055.138-2.145.138-3.2V266.7Zm6.669,23.453c2.621,0,3.814-2.248,3.814-6.606s-1.192-6.6-3.814-6.6-3.813,2.248-3.813,6.6S772.342,290.151,774.963,290.151Z" transform="translate(-541.727 -188.082)" fill="#09357a"></path><rect width="2.861" height="25.534" transform="translate(243.483 78.616)" fill="#09357a"></rect><path d="M850.812,303.349c0,4.02,1.566,5.888,4.731,5.888a7.422,7.422,0,0,0,3.984-1.433l.138,2.586a11.709,11.709,0,0,1-4.864,1.02c-4.6,0-6.979-3.475-6.979-8.922s2.379-8.917,6.709-8.917c3.915,0,6.1,3.13,6.1,8.24v1.538Zm6.944-2.179c0-3.607-1.125-5.413-3.406-5.413-1.835,0-3.475,1.364-3.539,5.413Z" transform="translate(-597.906 -207.034)" fill="#09357a"></path><path d="M899.056,307.833a7.9,7.9,0,0,0,4.083,1.3c2.179,0,3.3-1.124,3.3-2.449,0-1.192-.613-2.007-2.213-2.728l-1.9-.848c-2.491-1.123-3.406-2.248-3.406-4.461,0-2.861,2.214-5.04,5.585-5.04a10.538,10.538,0,0,1,3.677.613l-.138,2.448a8.3,8.3,0,0,0-3.406-.751c-1.875,0-2.861,1.02-2.861,2.38,0,1.394,1.02,2.179,2.93,2.93l1.02.407c2.11.848,3.44,2.282,3.44,4.427,0,2.993-1.6,5.378-5.585,5.378a10.382,10.382,0,0,1-4.7-1.02Z" transform="translate(-633.92 -207.055)" fill="#09357a"></path></g></svg>