<?xml version="1.0" encoding="utf-8"?>
<!-- Generator: Adobe Illustrator 27.0.0, SVG Export Plug-In . SVG Version: 6.00 Build 0)  -->
<svg version="1.1" id="Capa_1" xmlns="http://www.w3.org/2000/svg" xmlns:xlink="http://www.w3.org/1999/xlink" x="0px" y="0px"
	 viewBox="0 0 514.8 267.2" style="enable-background:new 0 0 514.8 267.2;" xml:space="preserve">
<style type="text/css">
	.st0{clip-path:url(#SVGID_00000033338612203954700250000016731310417594424482_);}
	.st1{clip-path:url(#SVGID_00000139285301052163371280000002960554416964238491_);fill:#FFFFFF;}
	.st2{fill:#86A41E;}
	.st3{fill-rule:evenodd;clip-rule:evenodd;fill:#DC0D15;}
	.st4{fill:#e37300;}
</style>
<g>
	<defs>
		<path id="SVGID_1_" d="M585.6-24.6c0,0-134.1,26.8-197.5,126.8c-83.6,131.9-216.6,258.1-401.8,68.5L5.3-53.8L585.6-24.6z"/>
	</defs>
	<clipPath id="SVGID_00000094607647888125469080000005713960101667502739_">
		<use xlink:href="#SVGID_1_"  style="overflow:visible;"/>
	</clipPath>
	<g style="clip-path:url(#SVGID_00000094607647888125469080000005713960101667502739_);">
		<defs>
			<rect id="SVGID_00000093896874309106164890000016399953034300444345_" x="0.8" y="0.1" width="584.7" height="267.1"/>
		</defs>
		<clipPath id="SVGID_00000137132496573312671600000005545973311142862736_">
			<use xlink:href="#SVGID_00000093896874309106164890000016399953034300444345_"  style="overflow:visible;"/>
		</clipPath>
		
			<rect x="-0.3" y="-1" style="clip-path:url(#SVGID_00000137132496573312671600000005545973311142862736_);fill:#FFFFFF;" width="515.1" height="269.3"/>
	</g>
</g>
<g>
	<path class="st2" d="M224.7,145.2l1.8-3.9c0.2-0.5,0.4-1.1,0.6-1.9c0.2,0.9,0.5,1.5,0.7,1.9l1.8,3.9H224.7z M232.5,151.9h3
		l-8.5-17.8l-8.5,17.8h3l2-4.4h6.9L232.5,151.9z M210.1,142.1v-4.9h0.5c2.5,0,3.7,0.5,3.7,2.6c0,2.1-1.3,2.3-3.7,2.3H210.1z
		 M210,144.3h0.3l5.8,7.7h3.2l-6-7.8c2.6-0.3,4-1.9,4-4.6c0-1.6-0.6-2.9-1.7-3.8c-1.1-0.8-2.5-1-4.4-1h-4v17.1h2.7V144.3z
		 M200.4,151.9h2.8v-17.1h-2.8V151.9z M187.3,151.9h9.8v-2.5h-6.9v-5.5h6.9v-2.4h-6.9v-4.3h6.9v-2.4h-9.8V151.9z M176.5,142.1v-4.9
		h0.5c2.5,0,3.7,0.5,3.7,2.6c0,2.1-1.2,2.3-3.7,2.3H176.5z M176.3,144.3h0.3l5.8,7.7h3.2l-6-7.8c2.6-0.3,4-1.9,4-4.6
		c0-1.6-0.6-2.9-1.7-3.8c-1.1-0.8-2.5-1-4.3-1h-4v17.1h2.7V144.3z M160.6,151.9h9.8v-2.5h-6.9v-5.5h6.9v-2.4h-6.9v-4.3h6.9v-2.4
		h-9.8V151.9z M150.5,142v-4.8h0.7c2.6,0,3.9,0.4,3.9,2.5c0,2-1.3,2.3-3.9,2.3H150.5z M150.3,144.2h1.6c1.8,0,3.2,0,4.4-0.9
		c1.1-0.8,1.8-2.2,1.8-3.9c0-1.6-0.7-3.1-1.8-3.8c-1.2-0.8-2.6-0.9-4.4-0.9h-4.3v17.1h2.7V144.2z M127.2,151.9h9.8v-2.5h-6.9v-5.5
		h6.9v-2.4h-6.9v-4.3h6.9v-2.4h-9.8V151.9z M112,149.4v-12.1h2.1c2.1,0,3.7,0.1,5,1.1c1.3,1.1,2,2.8,2,4.9c0,2.2-0.7,3.8-2,4.9
		c-1.2,1-2.7,1.1-4.7,1.1H112z M109.1,151.9h4.6c2.8,0,5.1-0.1,7.2-1.6c2-1.5,3.1-3.9,3.1-6.9c0-3.1-1.1-5.5-3.1-7
		c-2.1-1.6-4.6-1.6-7.9-1.6h-3.8V151.9z"/>
	<path class="st3" d="M78.3,50.7h-2.6c-0.8,1.3-8.8,7-10.8,8.5c-3.6,2.6-8.3,4.4-9.3,9.6l4.4,0.3h1.5c1.8,0,7.2-1,8.8-1.5
		c1.6-0.3,7-2.3,8-2.3V50.7z M62.8,64.7c1-2.1,9-9,10.8-9.6c0.3,0.8,0.3-0.3,0.3,0.8v7L62.8,64.7z"/>
	<path class="st3" d="M24.2,71.4v0.8c0,0,4.4,5.7,5.2,6.5c1,1.6,4.1,5.4,5.9,5.9c-0.8-3.6-5.7-8.3-5.9-11.6h3.9
		c2.3,0,10.8,2.6,10.8,4.1c0,0.5-3.1,4.1-3.6,4.7c-1.8,2.1-2.3,2.8-3.4,5.4c2.1-0.5,10.1-11.1,10.6-13.4c-0.8-0.3-4.1-1.5-5.4-2.1
		c-2.1-0.8-4.1-0.8-6.4-1.3C32.9,69.8,24.2,67.8,24.2,71.4"/>
	<path class="st3" d="M87.3,73.5c2.1,1.8,9.8,1.3,12.9,3.1c-1.8,2.6-8.8,8.8-12.9,8.8c0-2.3-2.1-11.4-3.4-11.9V75
		c0,1.5,1,6.2,1.3,7.5c0.5,0.8,2.1,7,2.1,7.5c2.3-0.3,8.2-4.6,9.8-6.2c1.3-1.3,7.7-5.9,7.7-7.8v-1.6c0-0.8-0.3-0.8-0.3-1.3l-0.8-0.3
		c-0.8,0-0.8,0.3-1.5,0.3h-0.5l-8.3-0.5l-0.8-0.3L87.3,73.5z"/>
	<path class="st3" d="M20,151.2c2.1-1.3,4.1-9.3,5.2-12.1c1.3-4.1,3.1-8.5,4.6-12.4c3.3-8.5,6.7-16.3,10.8-24
		c3.4-6.7,8.3-16.3,12.4-22c3.1-4.1,4.9-5.4,11.3-5.9c3.6-0.5,13.4-0.5,13.4-4.1c0-1-1.5-1-2.6-1h-2.8c-1,0-12.1,2.6-13.9,2.8
		c-4.4,1.3-6.7,4.1-9.3,7.5c-4.6,6.5-9,13.4-12.6,20.7c-3.9,7.8-7.2,15.2-10.1,23.5C24.7,129.8,20,144.8,20,151.2"/>
	<path class="st3" d="M76,74c0.8,2.8,1,7.5,1.6,10.6c0.5,2.8,1.3,7.2,1.8,10.1c0.8,2.8,1.5,7.2,2.1,10.1c0.8,3.6,1.8,6.5,2.3,10.1
		c0.3,2.6,1.8,7,2.3,9.8c1,3.4,1.5,6.5,2.6,9.6c1,5.2,4.9,14.5,4.9,19.6v2.6c-11.1,0-56.5-14.2-56.5-20.4v-0.8
		c0-2.3,6.2-8.5,7.7-10.1c3.4-3.4,5.2-6.2,9.8-8.8c5.4,3.1,20.9,12.2,28.1,12.2c-1.3-2.3-9.8-4.9-12.9-7c-2.3-1.5-11.1-5.9-12.1-7.8
		c1.8-2.3,10.1-5.4,11.1-7c-2.1,0.3-10.6,4.7-12.6,5.7c-1.5-0.8-10.3-7-10.3-8.3c0-3.6,16-20.2,18.8-20.2c0.5,0,8.2,4.9,11.3,5.7
		c-2.3-4.7-6.2-5.7-8-9c2.1-0.5,6.7-3.1,6.7-5.7c-0.8,0-1-0.3-1.8-0.3h-1c-1.6,0-5.7,3.4-7.2,4.1c-1.8-1.3-2.1-2.3-5.4-2.3H59
		c-1.3,0-2.6,1-2.6,2.3c0,0.8,1,1,1.8,1.3c1.5,0.8,1.3,0.8,2.3,1.6c-0.8,1-4.1,3.4-5.4,4.4c-2.1,1.8-3.6,3.1-5.4,4.9
		c-2.8,2.8-8,7.5-8,12.7v0.5c0,5.2,8.5,7.8,10.6,10.9c-0.5,1-9,7.8-10.8,9.6c-1.8,1.8-8,9.8-8,12.7c0.8,0.3,10.1,7,12.6,8.3
		c4.9,2.3,8.8,4.9,14.2,6.7c4.9,1.5,10.6,3.9,16,4.9c4.9,1,11.9,3.4,17.8,3.4h4.4v-4.1c0-5.2-3.9-15.5-5.2-20.9
		c-1.8-7.2-3.1-14.2-4.9-21.2c-0.8-3.6-1.5-7.2-2.3-10.6c-0.8-3.4-2.1-7.8-2.3-10.6c-0.3-2.8-1.8-7.5-2.3-10.6
		c-0.8-3.1-1.8-8-3.9-9.3L76,74z"/>
	<g>
		<path class="st4" d="M122.2,103.4H107c0.8-4.7,3.4-7.1,7.7-7.1C119.2,96.3,121.7,98.7,122.2,103.4 M131.9,109.8
			c0.1-0.9,0.1-1.8,0.1-2.8c0-12.2-6.7-19.6-17.2-19.6c-10.5,0-17.7,8.5-17.7,19.9c0,11.8,6.6,19.7,17.6,19.7
			c7.1,0,12.2-3.1,15.8-9.6l-7.8-4.3c-1.7,3.1-4.3,4.5-7.8,4.5c-4.7,0-7.4-2.6-8.2-7.9H131.9z"/>
		<path class="st4" d="M138.1,125.6h9v-17.6c0-3.1,0.1-5.7,1.6-8.1c1.4-2.2,3.5-3.5,6-3.5c5.4,0,5.9,4.1,5.9,11.1v18.1h9v-22.5
			c0-3.8-0.1-6.8-1.3-9.5c-1.9-3.9-5.1-5.8-9.9-5.8c-4.6,0-8.2,2.2-11.5,6.9v-5.7h-8.8V125.6z"/>
		<path class="st4" d="M225.2,91.4l0-2.3h-9.1v36.6h9.2v-16.1c0-10.3,1.7-16.3,11.7-11.9l3.8-7.9C236,87.7,231.2,85.8,225.2,91.4"/>
		<path class="st4" d="M277.6,127.5V88.8h-8.4v4.3c-3.4-4.9-7.8-5.2-12.8-5.2c-9.8,0-16.5,7.7-16.3,20.7
			c0.1,10.2,6.9,18.4,16.3,18.4c5.1,0,10.1-0.5,12.8-5.3l-0.1,6.4c-0.2,8.8-4.8,10.1-10.7,10.1c-4.1,0-7.5-4.6-7.8-7.6h-8.6
			c0.5,8.2,7.1,15.3,18.3,15.3c6.6,0,10.3-1.5,13.4-5.3C276.5,137.3,277.6,133,277.6,127.5 M269.5,108.4c-0.1,6.9-4.3,10.9-9.8,10.9
			c-5.6,0-10.7-4.2-10.7-11c0-7,2.8-12.7,10.7-12.8C264.8,95.5,269.6,99.8,269.5,108.4"/>
		<path class="st4" d="M284.2,125.4h9.2V88.8h-9.2V125.4z M302.5,70.1l-7.4-4.2l-9.5,13.9l4.7,2.7L302.5,70.1z"/>
		<path class="st4" d="M328.4,107.3c-0.1,8.8-6.4,11.9-11.4,11.9c-5,0-9.4-5.3-9.4-11.9c0-6.6,5-11.7,10.1-11.7
			C322.4,95.6,328.5,99,328.4,107.3 M336.5,125.6V89.1h-8.4V93c-3.8-4.6-9.2-5.1-13.8-5.1c-9,0-15.8,9-15.7,19.5
			c0.1,10.6,8.3,19.5,15.4,19.7c4.3,0.1,11.3-0.8,13.8-5.5l0.2,4H336.5z"/>
		<path class="st4" d="M200,103.4h-15.2c0.8-4.7,3.4-7.1,7.7-7.1C197,96.3,199.5,98.7,200,103.4 M209.7,109.8
			c0.1-0.9,0.1-1.8,0.1-2.8c0-12.2-6.7-19.6-17.2-19.6c-10.5,0-17.7,8.5-17.7,19.9c0,11.8,6.6,19.7,17.6,19.7
			c7.1,0,12.2-3.1,15.8-9.6l-7.8-4.3c-1.7,3.1-4.3,4.5-7.8,4.5c-4.7,0-7.4-2.6-8.2-7.9H209.7z"/>
		<path class="st4" d="M347.7,79.7c1.8,0,3.4,0.7,4.7,2c1.3,1.3,1.9,2.8,1.9,4.7c0,1.9-0.6,3.4-1.9,4.6c-1.3,1.3-2.9,2-4.7,2
			c-1.8,0-3.3-0.7-4.7-2c-1.3-1.3-1.9-2.8-1.9-4.6c0-1.8,0.7-3.4,2-4.7C344.4,80.3,345.9,79.7,347.7,79.7 M353.6,86.4
			c0-1.6-0.6-3-1.7-4.1c-1.1-1.1-2.5-1.7-4.2-1.7c-1.6,0-3,0.6-4.1,1.7c-1.2,1.2-1.7,2.6-1.7,4.2c0,1.2,0.3,2.2,1,3.2
			c0.7,1,1.5,1.7,2.6,2.1c0.7,0.3,1.4,0.4,2.2,0.4c1.6,0,3-0.6,4.2-1.7C353,89.3,353.6,87.9,353.6,86.4 M347.9,82.4
			c2.1,0,3.2,0.7,3.2,2.1c0,1.1-0.6,1.8-1.8,2L351,90h-1.4l-1.6-3.3h-1.6V90h-1.3v-7.6H347.9z M347.7,83.3h-1.3v2.6h1.3
			c1.4,0,2-0.4,2-1.3C349.7,83.7,349.1,83.3,347.7,83.3"/>
	</g>
</g>
</svg>
