<?xml version="1.0" encoding="utf-8"?>
<!-- Generator: Adobe Illustrator 21.1.0, SVG Export Plug-In . SVG Version: 6.00 Build 0)  -->
<svg version="1.1" xmlns="http://www.w3.org/2000/svg" xmlns:xlink="http://www.w3.org/1999/xlink" x="0px" y="0px"
	 viewBox="0 0 400 140" style="enable-background:new 0 0 400 140;" xml:space="preserve">
<style type="text/css">
	.st0{display:none;}
	.st1{fill:#005751;}
	.st2{fill:#72BC84;}
	.st3{fill:none;stroke:#1D1D1B;stroke-width:1.763;}
</style>
<g id="Ebene_1" class="st0">
	<image style="display:inline;overflow:visible;" width="400" height="140" xlink:href="logo_aboenergy.jpg" >
	</image>
</g>
<g id="Ebene_2">
	<polygon class="st1" points="47.7,68.6 2.9,128.1 21.4,128.2 47.5,93.5 	"/>
	<path class="st2" d="M69.1,122.3c0,0-3.5-1.7-9.2-7.6c-4.8-5.7-6.4-10.5-6.7-14.5l0-14l-0.1-58.4h16l0,70.9V122.3"/>
	<path class="st1" d="M130.3,87.9c0-22.5-18.2-40.7-40.7-40.7c-5.4,0-10.5,1.1-15.2,3v18.8c4.2-3.4,9.4-5.4,15.2-5.4
		c13.4,0,24.2,10.9,24.2,24.2c0,13.4-10.9,24.2-24.2,24.2c-5.8,0-11-2-15.2-5.4v18.8c4.7,1.9,9.8,3,15.2,3
		C112.1,128.6,130.3,110.4,130.3,87.9"/>
	<path class="st1" d="M199.8,108.1"/>
	<path class="st3" d="M199.8,108.1"/>
	<path class="st1" d="M199.8,108.1"/>
	<path class="st3" d="M199.8,108.1"/>
	<polygon class="st1" points="179.7,127.8 179.7,120.2 162.4,120.2 162.4,108 178.9,108 178.9,100.8 162.4,100.8 162.4,89.6 
		179.7,89.6 179.7,82.2 152.9,82.2 152.9,127.8 	"/>
	<polygon class="st1" points="264.8,127.9 264.8,120.3 247.4,120.3 247.4,108 264,108 264,100.8 247.4,100.8 247.4,89.7 264.8,89.7 
		264.8,82.2 237.9,82.2 237.9,127.9 	"/>
	<path class="st1" d="M230.1,127.8V82.2h-9.2l0.1,20.1c0,5.9,0.1,10.3,0.3,13.2h-0.1c-1.5-3.2-3.2-6.1-5-8.9l-15.3-24.3h-12.6v45.6
		h9.2l-0.1-23.9c0-4.2-0.1-7-0.3-9.6h0.1c1.2,2.7,2.9,6,4.6,8.7l15.7,24.7H230.1"/>
	<path class="st1" d="M294.6,95.5c0,4.3-3.3,7.2-8.3,7.2c-1.5,0-3.1-0.1-4.4-0.2V89.4c1.2-0.2,2.5-0.2,4-0.2
		C291.3,89.2,294.6,91.4,294.6,95.5 M307.1,127.9l-11.3-15.3c-1.4-1.9-2.6-3.7-3.7-4.9c7.3-1.1,12.5-5.6,12.5-13.1
		c0-8.4-6.3-12.7-17.2-12.7c-5.6,0-11.6,0.1-14.9,0.3v45.7h9.5v-18.8h0.4l13.1,18.8H307.1z"/>
	<path class="st1" d="M348.6,125.5v-21.6h-9.5v15.4c-1.9,0.5-4.3,0.9-6.7,0.9c-8.6,0-14.5-5.4-14.5-15.2c0-10.4,6.9-15.8,15.4-15.8
		c4.4,0,8.6,0.9,12.6,2.5l1.7-8.3c-4.8-1.4-9.5-2.1-14.4-2.1c-16,0-25.5,10.8-25.5,24.5c0,15,10,22.8,23.7,22.8
		C337.8,128.5,343.3,127.5,348.6,125.5"/>
	<path class="st1" d="M393.3,82.2h-10l-6.5,12.6c-1.4,2.7-2.7,4.9-3.9,8.1l0,0.1c-1.1-3.1-2.3-5-3.6-7.7l-6.8-13.1h-10.5l15.1,30.2
		l-8.2,15.5h10.5l24.3-45.7"/>
	<path class="st1" d="M182.6,58.2h-14.5l5-13c0.9-2.4,1.8-5,2.3-7.2h0.1c0.6,2.1,1.5,4.9,2.4,7.3L182.6,58.2z M198.9,74.1l-17.4-46
		h-11.2l-17.4,46h9.6l3.4-8.9H185l3.3,8.9H198.9"/>
	<path class="st1" d="M227.5,60c0,4.2-2.9,7.2-9.2,7.2c-2.2,0-4-0.1-5.4-0.4V53.5c1.1-0.1,3.1-0.1,4-0.1
		C223.3,53.4,227.5,55.2,227.5,60 M226.7,40.6c0,4.6-4,6.8-10.2,6.8c-0.6,0-2.1,0-3.6-0.1V34.8c1.7,0,3.7-0.1,5.4-0.1
		C224.8,34.7,226.7,37.2,226.7,40.6 M237.5,59.8c0-4.9-2.7-9-8.3-10.3v-0.1c4.7-1.8,7.5-5.6,7.5-10.3c0-6.9-4.7-11.2-16.5-11.2
		c-6.1,0-12.5,0.2-16.8,0.2v45.7c6.2,0.1,11.7,0.2,14.8,0.2C233.4,74.1,237.5,66.2,237.5,59.8"/>
	<path class="st1" d="M277.8,51.1c0,10.2-6,15.1-13.2,15.1c-8.9,0-12.6-6.8-12.6-15.5c0-9.8,6-15.1,13-15.1
		C272.7,35.6,277.8,41,277.8,51.1 M288,50.5c0-15.4-9.2-23.1-22.4-23.1c-12.6,0-23.6,9-23.6,24c0,13.7,7.4,23.1,22.2,23.1
		C277.1,74.5,288,65.6,288,50.5"/>
</g>
</svg>
