<?xml version="1.0" encoding="utf-8"?>
<!-- Generator: Adobe Illustrator 29.3.0, SVG Export Plug-In . SVG Version: 9.03 Build 55982)  -->
<svg version="1.0" id="Capa_1" xmlns="http://www.w3.org/2000/svg" xmlns:xlink="http://www.w3.org/1999/xlink" x="0px" y="0px"
	 viewBox="0 0 1645.4 450" style="enable-background:new 0 0 1645.4 450;" xml:space="preserve">
<style type="text/css">
	.st0{fill:#FFFFFF;}
	.st1{fill:#BDE038;}
	.st2{fill:#083F5E;}
	.st3{fill:#017A6B;}
	.st4{fill:#DBF226;}
</style>
<g>
	<path class="st0" d="M384.1,256.6C384.1,256.6,384.1,256.6,384.1,256.6C384.1,256.6,384.1,256.6,384.1,256.6z"/>
	<g>
		<g>
			<path class="st1" d="M282.8,237.1c15.6,0,34.5,1.9,57.7,5.9l0.1,0l0.1,0c12.6,2.6,31.6,6,50.3,6c21.6,0,39.2-4.4,53.6-13.5
				c3.2-2.8,5.8-6.3,7.3-10.3c0-10.2-0.7-20.5-2.1-30.6c-1.5-10.8-2.7-21.6-5.6-32.2c-6.7-24.3-19.4-46.8-33.9-67.3
				c-15.4-21.7-34.6-40.7-56.5-55.8c-21.6-14.8-45.7-25.8-71-32.4c-15.4-4-31.3-6.3-47.2-7v246.5
				C247.3,240.5,262.2,237.1,282.8,237.1z"/>
		</g>
		<g>
			<g>
				<path class="st0" d="M278.2,146.1c10.5-1.4,20.6-1.8,30.8-0.1C304.9,147.8,287.4,147.9,278.2,146.1z"/>
				<path class="st0" d="M295,148.5c-6,0-12.4-0.4-17-1.3l-6.5-1.3l6.6-0.9c11.8-1.6,21.7-1.6,31.1-0.1l3.7,0.6l-3.4,1.5
					C307.2,148,301.4,148.5,295,148.5z M289,146.2c4,0.2,8,0.2,11.4,0C296.8,146,293,146,289,146.2z"/>
			</g>
			<g>
				<path class="st0" d="M344.8,146.2c4.9-1.3,16.5-2.1,30.3-0.1C369.6,147.6,352.3,148.2,344.8,146.2z"/>
				<path class="st0" d="M358.9,148.5c-5.5,0-10.9-0.4-14.4-1.3l-4-1.1l4-1.1c5.3-1.4,17.2-2,30.7-0.1l5.3,0.7l-5.2,1.4
					C372.4,148,365.6,148.5,358.9,148.5z M352.9,146.2c3.8,0.2,8.2,0.2,12,0C360.5,145.9,356.4,146,352.9,146.2z"/>
			</g>
			<g>
				<path class="st0" d="M326.9,194.1c-1.5-9.9-1.8-19.8,0-29.7C328.7,174.3,328.4,184.2,326.9,194.1z"/>
				<path class="st0" d="M326.9,201.6l-1.1-7.3c-1.7-11.2-1.7-21.1,0-30.1l1.1-5.9l1.1,5.9c1.7,9.2,1.7,19,0,30.1L326.9,201.6z
					 M326.9,173.7c-0.2,3.2-0.2,6.4,0,9.8C327.1,180.1,327.1,176.8,326.9,173.7z"/>
			</g>
			<g>
				<path class="st0" d="M326.9,98.3c1.5,9.9,1.7,19.8,0.1,29.8C325.2,124.7,325.1,107.4,326.9,98.3z"/>
				<path class="st0" d="M327.6,131.5l-1.5-2.9c-2.1-3.9-1.9-21.8-0.2-30.6l1.2-6.3l0.9,6.4c1.6,10.9,1.6,20.8,0.1,30.2L327.6,131.5
					z M326.9,108.6c-0.2,3.9-0.2,8,0,11.3C327.1,116.3,327.1,112.5,326.9,108.6z"/>
			</g>
			<g>
				<path class="st0" d="M361.1,111.9c-3.5,5.9-14.9,17.3-19.7,19.7C346.9,123.6,353.6,117.3,361.1,111.9z"/>
				<path class="st0" d="M338.1,134.3l2.4-3.4c5.1-7.3,11.6-13.9,20-19.9l4.2-3l-2.6,4.5c-3.6,6.2-15.1,17.6-20.2,20.1L338.1,134.3z
					 M354.7,118.4c-2.7,2.4-5.2,4.9-7.5,7.5C349.7,123.6,352.4,121,354.7,118.4z"/>
			</g>
			<g>
				<path class="st0" d="M292.6,180.5c5.4-7.6,11.7-14.3,19.4-19.5C306.9,168.8,300.2,175.1,292.6,180.5z"/>
				<path class="st0" d="M287.9,185.2l3.8-5.3c6-8.4,12.4-14.8,19.7-19.7l4.6-3.1l-3.1,4.6c-4.8,7.3-11.3,13.7-19.7,19.7
					L287.9,185.2z M306.2,166.9c-2.4,2.1-4.7,4.4-7,7C301.8,171.6,304.1,169.3,306.2,166.9z"/>
			</g>
			<g>
				<path class="st0" d="M361.4,180.9c-7.8-5.8-14.5-12.1-19.9-19.8C345.2,162.2,358.1,174.9,361.4,180.9z"/>
				<path class="st0" d="M364.9,184.8l-4.1-3.1c-8.7-6.5-15.1-12.9-20.1-20.1l-1.8-2.6l3,0.9c4,1.2,17,14.1,20.5,20.3L364.9,184.8z
					 M347,166.3c2.4,2.7,5,5.4,8,8C352.5,171.5,349.6,168.6,347,166.3z"/>
			</g>
			<g>
				<path class="st0" d="M292.6,111.9c7.6,5.4,14.3,11.7,19.5,19.5C304.3,126.2,298,119.5,292.6,111.9z"/>
				<path class="st0" d="M316,135.3l-4.6-3c-7.3-4.8-13.7-11.3-19.8-19.7l-3.8-5.4l5.4,3.8c8.5,6,14.9,12.5,19.7,19.7L316,135.3z
					 M299.3,118.6c2.2,2.6,4.6,4.9,6.9,6.9C304.1,123.1,301.8,120.8,299.3,118.6z"/>
			</g>
			<g>
				<path class="st0" d="M296,133c7.2,1.5,13.8,3.9,19.6,8.3C311.8,141.6,302.4,137.6,296,133z"/>
				<path class="st0" d="M315.1,142.3c-4.3,0-13.3-3.8-19.8-8.5l-4.2-3l5,1c8.3,1.7,14.6,4.4,20.1,8.5l2.3,1.7l-2.9,0.2
					C315.5,142.3,315.3,142.3,315.1,142.3z M302.9,135.9c2.6,1.4,5.2,2.5,7.4,3.2C308,137.9,305.6,136.8,302.9,135.9z"/>
			</g>
			<g>
				<path class="st0" d="M313.6,177.2c1.5-7.3,3.9-14,8.4-19.6C321,164.8,317.9,171,313.6,177.2z"/>
				<path class="st0" d="M311.5,182.3l1.1-5.3c1.7-8.5,4.5-14.9,8.6-20.1l2.5-3.2l-0.6,4c-0.9,6.6-3.7,13-8.6,20.1L311.5,182.3z
					 M319.6,163.3c-1.2,2.1-2.2,4.5-3,7.1C317.8,167.9,318.8,165.6,319.6,163.3z"/>
			</g>
			<g>
				<path class="st0" d="M331.7,135c0.6-5.7,4-13.7,8.1-19.2C339.9,119.7,335.4,130.5,331.7,135z"/>
				<path class="st0" d="M330.2,138.5l0.4-3.6c0.6-5.9,4-14,8.3-19.7l1.8-2.5l0.1,3.1c0.2,4.2-4.4,15.2-8.4,19.9L330.2,138.5z
					 M337.3,121.7c-1.3,2.4-2.4,4.9-3.2,7.3C335.4,126.7,336.5,124.1,337.3,121.7z"/>
			</g>
			<g>
				<path class="st0" d="M338.3,151c7.1,1,13.3,4,19,8.1C350.3,157.9,343.9,155.5,338.3,151z"/>
				<path class="st0" d="M361.9,161.2l-4.8-0.9c-7.9-1.5-14.3-4.2-19.5-8.4l-3.2-2.5l4,0.6c6.7,1,13.1,3.7,19.5,8.3L361.9,161.2z
					 M343.9,153.5c2.1,1.2,4.5,2.2,7,3C348.6,155.2,346.2,154.2,343.9,153.5z"/>
			</g>
			<g>
				<path class="st0" d="M321.4,132.5c-4.1-5.2-6.1-11.3-7.3-18.2C318,120.2,320.8,125.9,321.4,132.5z"/>
				<path class="st0" d="M322.8,136.1l-2.3-2.9c-3.8-4.8-6.1-10.6-7.5-18.6l-0.9-5l2.9,4.2c4.6,6.8,6.9,12.5,7.5,18.7L322.8,136.1z
					 M316.7,120.9c0.7,2.4,1.6,4.5,2.6,6.4C318.7,125.2,317.9,123.1,316.7,120.9z"/>
			</g>
			<g>
				<path class="st0" d="M340.1,140.9c3.4-2.9,10-6.2,18.5-7.5C352.9,137.3,347.2,140.1,340.1,140.9z"/>
				<path class="st0" d="M336.7,142.4l2.7-2.3c3.2-2.8,9.9-6.3,19.1-7.7l4.8-0.7l-4,2.7c-6.7,4.5-12.6,6.9-19,7.6L336.7,142.4z
					 M352.2,136c-2.6,0.8-4.9,1.7-6.8,2.7C347.6,138.1,349.9,137.2,352.2,136z"/>
			</g>
			<g>
				<path class="st0" d="M313.6,151.6c-5.6,4.2-11.7,6.1-18.1,7.3C298.9,155.8,308.3,151.6,313.6,151.6z"/>
				<path class="st0" d="M292.1,160.6l2.7-2.5c3.6-3.3,13.3-7.6,18.8-7.6c0,0,0,0,0.1,0l3.3,0l-2.6,2c-5.1,3.8-10.8,6.1-18.6,7.5
					L292.1,160.6z M308.4,153.6c-2.4,0.7-4.9,1.7-7.1,2.8C303.9,155.7,306.3,154.7,308.4,153.6z"/>
			</g>
			<g>
				<path class="st0" d="M339.6,178c-3.9-5.8-6.7-11.5-7.3-18.2C336.5,165.1,338.5,171.1,339.6,178z"/>
				<path class="st0" d="M341.6,182.9l-2.9-4.2c-3.1-4.7-6.8-11-7.4-18.7l-0.3-3.7l2.3,2.9c3.8,4.9,6.1,10.6,7.5,18.7L341.6,182.9z
					 M334.4,165.1c0.6,2.1,1.4,4.2,2.6,6.4C336.3,169.1,335.5,167,334.4,165.1z"/>
			</g>
			<g>
				<path class="st0" d="M326.9,89.4c-1.3-6.1-1.2-12.1,0-18.1C328.1,77.3,328.1,83.3,326.9,89.4z"/>
				<path class="st0" d="M326.9,94.7l-1.1-5.1c-1.3-6-1.3-12.2,0-18.6l1.1-5.5L328,71c1.2,6.4,1.2,12.6,0,18.6L326.9,94.7z"/>
			</g>
			<g>
				<path class="st0" d="M270.5,146.2c-6.5,1.3-12.5,1.2-18.6,0C257.9,145,264,144.9,270.5,146.2z"/>
				<path class="st0" d="M261.3,148.2c-3.1,0-6.3-0.3-9.6-0.9l-5.6-1.1l5.6-1.1c6.4-1.3,12.7-1.3,19,0l5.4,1.1l-5.4,1.1
					C267.6,147.9,264.5,148.2,261.3,148.2z"/>
			</g>
			<g>
				<path class="st0" d="M401.9,146.1c-5.4,1.3-12.9,1.3-18.4,0C389.8,144.9,395.8,145,401.9,146.1z"/>
				<path class="st0" d="M392.7,148.2c-3.3,0-6.7-0.3-9.5-1l-5-1.1l5-1c6-1.2,12.2-1.2,18.8,0l5.1,0.9l-5.1,1.2
					C399.4,147.9,396.1,148.2,392.7,148.2z"/>
			</g>
			<g>
				<path class="st0" d="M326.9,202.6c1.3,6.5,1.2,12.5,0,18.6C325.7,215.1,325.6,209.1,326.9,202.6z"/>
				<path class="st0" d="M326.9,227l-1.1-5.6c-1.3-6.3-1.3-12.6,0-19l1.1-5.5l1.1,5.5c1.3,6.2,1.3,12.4,0,19L326.9,227z"/>
			</g>
			<g>
				<path class="st0" d="M274.5,93.8c4.7,3.1,8.8,6.9,11.9,11.7C283.6,104.7,277.3,98.5,274.5,93.8z"/>
				<path class="st0" d="M288.9,107.5l-2.9-0.9c-3.1-1-9.7-7.4-12.5-12.2l-2.4-4.1l4,2.6c5.3,3.5,9.3,7.5,12.2,12.1L288.9,107.5z"/>
			</g>
			<g>
				<path class="st0" d="M367.1,106c3.2-5.2,7.4-8.9,12.1-12.3C378.3,96.4,372.2,102.7,367.1,106z"/>
				<path class="st0" d="M363.7,109.5l2.5-4.1c3.7-5.9,8.5-9.9,12.3-12.6l2.6-1.9l-1,3.1c-1,3.3-7.7,9.8-12.5,12.9L363.7,109.5z"/>
			</g>
			<g>
				<path class="st0" d="M286.6,186.4c-3.2,5.2-7.4,9-12.1,12.1C277.7,193.8,281.4,189.7,286.6,186.4z"/>
				<path class="st0" d="M270.6,202.5l3-4.5c3.6-5.5,7.6-9.4,12.5-12.4l4-2.5l-2.5,4c-3,4.9-7,8.8-12.5,12.5L270.6,202.5z"/>
			</g>
			<g>
				<path class="st0" d="M379.2,198.6c-4.7-3.2-8.8-6.9-11.9-11.8C370.4,187.9,376.7,194.1,379.2,198.6z"/>
				<path class="st0" d="M382.5,202.1l-3.8-2.6c-5.4-3.6-9.3-7.6-12.2-12.1l-1.7-2.7l3,1.1c3.3,1.2,9.8,7.7,12.4,12.3L382.5,202.1z"
					/>
			</g>
			<g>
				<path class="st0" d="M279.6,126c4.2,0.4,8,2,11.4,4.9C286.6,130.4,282.9,128.7,279.6,126z"/>
				<path class="st0" d="M294.5,132.3l-3.6-0.4c-4.4-0.5-8.4-2.1-12-5.1l-2.8-2.3l3.6,0.3c4.5,0.4,8.5,2.1,12,5.1L294.5,132.3z"/>
			</g>
			<g>
				<path class="st0" d="M311.5,182.2c-0.4,4.3-2.1,7.9-4.7,11.4C306.2,191.3,308.7,185.2,311.5,182.2z"/>
				<path class="st0" d="M306.4,196l-0.6-2.2c-0.8-2.9,2.1-9.3,4.9-12.4l2.2-2.4l-0.3,3.2c-0.4,4.1-2,8-4.9,11.9L306.4,196z"/>
			</g>
			<g>
				<path class="st0" d="M342.2,110.3c0.5-4.5,2.2-8.1,4.8-11.6C347.4,101.3,345.2,106.6,342.2,110.3z"/>
				<path class="st0" d="M340.7,113.9l0.4-3.7c0.5-4.4,2.1-8.2,5-12.1l1.5-2.1l0.4,2.5c0.5,2.9-1.7,8.4-5,12.5L340.7,113.9z"/>
			</g>
			<g>
				<path class="st0" d="M374.2,166.4c-4.2-0.4-8-2-11.4-4.8C367.2,162,370.9,163.7,374.2,166.4z"/>
				<path class="st0" d="M377.7,167.9l-3.7-0.4c-4.6-0.5-8.5-2.1-12-5.1l-2.7-2.3l3.5,0.3c4.4,0.4,8.3,2.1,12,5.1L377.7,167.9z"/>
			</g>
			<g>
				<path class="st0" d="M312.2,109.7c-2.8-3.3-4-7-4.5-11C310,100.6,312.1,105.9,312.2,109.7z"/>
				<path class="st0" d="M313.3,112.7l-2-2.4c-2.7-3.2-4.2-6.8-4.7-11.6l-0.3-2.8l2.1,1.8c2.5,2.2,4.8,7.7,4.8,11.8L313.3,112.7z"/>
			</g>
			<g>
				<path class="st0" d="M374.7,127.1c-3.4,2.6-6.9,4.2-11,4.5C365.5,129.3,369.8,127.5,374.7,127.1z"/>
				<path class="st0" d="M361.2,132.8l1.6-2c2.1-2.5,6.6-4.4,11.8-4.9l3.9-0.4l-3.1,2.3c-3.9,2.9-7.6,4.4-11.6,4.7L361.2,132.8z"/>
			</g>
			<g>
				<path class="st0" d="M278.9,165.4c3.6-2.7,7.1-4.4,11.5-4.6C287.1,163.7,283.4,164.9,278.9,165.4z"/>
				<path class="st0" d="M274.8,167l3.4-2.5c4.3-3.1,7.9-4.6,12.1-4.8l3.2-0.2l-2.4,2.1c-3.2,2.8-6.8,4.2-12.1,4.9L274.8,167z"/>
			</g>
			<g>
				<path class="st0" d="M346.1,194.1c-2.6-3.5-4.3-7-4.6-11.4C344.4,186,345.6,189.7,346.1,194.1z"/>
				<path class="st0" d="M347.6,198l-2.4-3.3c-3.1-4.1-4.5-7.8-4.8-12l-0.2-3.2l2.1,2.4c2.8,3.2,4.2,6.9,4.8,12L347.6,198z"/>
			</g>
		</g>
	</g>
	<g>
		<path class="st2" d="M127.6,300.5c24.7-26.1,55.3-42.7,87.2-47.8V0.1C128,4.3,54,57.5,20,132.6c24.6,0,49.1,0,73.7,0
			c2.2,0,4.4,0.1,6.6-0.1c6.9-0.7,11.1-5.1,11.1-11.4c0-6.3-4.2-10.7-11.2-11.4c-3.9-0.4-7.9-0.2-11.8-0.2c-4.8,0-8.5-1.6-8.3-7
			c0.1-4.9,3.6-6.6,8.1-6.7c4.7,0,9.4-0.2,14,0.1c13.3,1,24,12.9,23.5,25.8c-0.5,13.4-11.4,24.3-24.8,24.4
			c-27.1,0.2-54.1,0.1-81.2,0.1c0,0,0,0,0,0c-1.8,0-3.6,0-5.5,0c-1.7,4.4-3.2,9-4.6,13.5c48.2,0,96.4,0,144.6,0c1,0,2,0,3,0
			c5.1,0,10,1.1,9.9,7.2c-0.2,6-5.1,6.9-10.2,6.9c-39.1-0.1-78.2,0-117.3,0c-11.2,0-22.5,0-33.7,0c-1.1,4.7-2,9.4-2.8,14.1
			c9,0.1,18,0.3,27,0.3c31.5,0,63,0,94.5,0c11.1,0,19.4,5,24,15.3c4.4,9.8,2.4,18.8-4.4,26.8c-6.6,7.7-25.2,12-34.3,7.6
			c-2.1-1-4.6-4.7-4.2-6.6c0.5-2.4,3.4-5.4,5.8-6.2c3.6-1.1,7.8-0.4,11.7-0.5c8.7-0.2,13.3-4.1,13.3-11.3c0-7.2-4.6-11.2-13.4-11.2
			c-32.2,0-64.4,0-96.6,0c-8.4,0-16.9,0-25.3,0c-0.4,3.6-0.7,7.2-0.9,10.8c26.3,0,52.7,0,79,0c1,0,2,0,3,0c5.1,0,10,1.1,9.9,7.2
			c-0.2,6-5.1,6.9-10.2,6.9c-27.3,0-54.7,0-82,0c0.4,67.8,30.7,128.5,78.4,169.7C84.9,361.3,102.2,327.3,127.6,300.5z M211.5,170.5
			l-0.7,0.1l0-0.3L211.5,170.5z"/>
	</g>
	<g>
		<path class="st3" d="M311.4,379.5c-38.1,2.8-76.6,1-114.2,7.6c-33.2,5.8-65,18.1-96.4,30.3c20.1,7,40.2,13.9,60.7,19.6
			c54.5,15.3,115,21.5,166.5-6.7c36-19.7,68-51.8,92.2-84.6l-1-0.2C388.8,368.7,349.5,376.7,311.4,379.5z"/>
		<path class="st3" d="M151.8,350.8c19.8-18.7,36-41.2,51.6-63c1.8-2.6,3.7-5.1,5.5-7.6c2.2-3,4.7-6.5,7.5-10.3
			C151,279,102.7,339.2,89.8,398.6C112.7,384.2,133.5,368.1,151.8,350.8z"/>
		<path class="st3" d="M447.1,245.9c-17.9,12.2-38.8,16.3-60.1,16.3c-17.2,0-34.7-2.7-51.1-6c-22.4-3.8-40.3-5.6-54.9-5.6
			c-26.7,0-42.3,6-54.3,16.8c-3.8,5-7.3,9.9-10.2,13.9c-1.8,2.5-3.7,5.1-5.5,7.6c-5.7,8-11.5,16.1-17.6,24
			c-18.2,27.7-45,62.5-104.1,100.4c2.5-1.3,82.7-43,165-43c0,0,0.1,0,0.1,0c0.4,0,0.7,0,1.1,0c27.1,0,54.3-0.4,81.2-4
			c49-7.4,95.2-17.8,105.6-73.7C446.6,277.8,449,261.4,447.1,245.9z"/>
	</g>
	<g>
		<g>
			<g>
				<g>
					<path class="st2" d="M561.8,246.4l15,25.1c2.5,4.3,0.7,7.4-4.2,7.4h-9.9c-3.4,0-5.7-1.5-7.3-4.5l-13-24.6h-8v22.9
						c0,4-2.2,6.2-6.2,6.2h-9.8c-4,0-6.2-2.2-6.2-6.2v-67.6c0-4,2.2-6.2,6.2-6.2h24.2c21.1,0,33.7,8.1,33.7,25.5
						C576.2,235.3,570.9,242.9,561.8,246.4z M542.6,215.6h-8.3v17.6h8.3c7.3,0,11.2-2.6,11.2-8.8
						C553.8,218.4,549.9,215.6,542.6,215.6z"/>
					<path class="st2" d="M601,199h43c4,0,6.2,2.2,6.2,6.2v5c0,4-2.2,6.2-6.2,6.2h-27v12.9h23c4,0,6.2,2.2,6.2,6.2v5
						c0,4-2.2,6.2-6.2,6.2h-23v15.1h28c4,0,6.2,2.2,6.2,6.2v4.9c0,4-2.2,6.2-6.2,6.2h-44c-4,0-6.2-2.2-6.2-6.2v-67.6
						C594.8,201.1,597,199,601,199z"/>
					<path class="st2" d="M673.7,199h10.6c3.3,0,5.7,1.4,7.4,4.2l23.1,39.4v-37.5c0-4,2.2-6.2,6.2-6.2h9.3c4,0,6.2,2.2,6.2,6.2v67.6
						c0,4-2.2,6.2-6.2,6.2h-10.6c-3.3,0-5.7-1.4-7.4-4.2l-23.1-39.3v37.4c0,4-2.2,6.2-6.2,6.2h-9.3c-4,0-6.2-2.2-6.2-6.2v-67.6
						C667.5,201.1,669.7,199,673.7,199z"/>
					<path class="st2" d="M752.4,238.9c0-24.6,14.7-41.4,38.9-41.4c24.1,0,38.8,16.8,38.8,41.4c0,24.6-14.7,41.4-38.8,41.4
						C767.2,280.3,752.4,263.5,752.4,238.9z M807.7,238.9c0-14.3-6.4-23.1-16.5-23.1c-10.1,0-16.5,8.8-16.5,23.1
						c0,14.3,6.4,23.1,16.5,23.1C801.3,262,807.7,253.2,807.7,238.9z"/>
					<path class="st2" d="M862.9,273.9l-22.4-68c-1.4-4.2,0.7-7,5.1-7h10.7c3.5,0,5.9,1.7,7,5.1l15.5,50.4l15.5-50.4
						c1-3.4,3.4-5.1,7-5.1h10.7c4.5,0,6.5,2.6,5.1,7l-22.4,68c-1.1,3.4-3.5,5-7.1,5H870C866.5,278.9,864.1,277.3,862.9,273.9z"/>
					<path class="st2" d="M969.1,199c3.5,0,5.9,1.6,7.1,5l22.4,68c1.4,4.2-0.7,7-5.1,7h-10.7c-3.7,0-5.8-1.7-6.9-5.1l-2.4-8.1h-26.6
						l-2.3,8c-1,3.4-3.2,5.3-6.9,5.3h-10.7c-4.5,0-6.5-2.6-5.1-7l22.4-68c1.1-3.4,3.5-5,7.1-5H969.1z M968.3,247.5l-8.1-28.1
						l-8.1,28.1H968.3z"/>
					<path class="st2" d="M1020.5,199h24.9c20.1,0,29.5,7.9,29.5,21.6c0,7.7-3.8,13.9-10.5,16.5c8.8,2.4,14.5,9.3,14.5,18.3
						c0,14.1-8.6,23.7-31.7,23.7h-26.7c-4,0-6.2-2.2-6.2-6.2v-67.6C1014.3,201.1,1016.5,199,1020.5,199z M1044.4,216.2h-7.9v13.6
						h7.9c6.5,0,9.4-1.8,9.4-6.9C1053.7,217.7,1050.9,216.2,1044.4,216.2z M1046,246.4h-9.5v15.4h9.5c7.2,0,10.5-2.1,10.5-7.8
						C1056.5,248.4,1053.2,246.4,1046,246.4z"/>
					<path class="st2" d="M1100.6,199h9.8c4,0,6.2,2.2,6.2,6.2v55.8h27.3c4,0,6.2,2.2,6.2,6.2v5.7c0,4-2.2,6.2-6.2,6.2h-43.3
						c-4,0-6.2-2.2-6.2-6.2v-67.6C1094.4,201.1,1096.6,199,1100.6,199z"/>
					<path class="st2" d="M1169.8,199h43c4,0,6.2,2.2,6.2,6.2v5c0,4-2.2,6.2-6.2,6.2h-27v12.9h23c4,0,6.2,2.2,6.2,6.2v5
						c0,4-2.2,6.2-6.2,6.2h-23v15.1h28c4,0,6.2,2.2,6.2,6.2v4.9c0,4-2.2,6.2-6.2,6.2h-44c-4,0-6.2-2.2-6.2-6.2v-67.6
						C1163.6,201.1,1165.8,199,1169.8,199z"/>
					<path class="st2" d="M1274,257c0-4.2-2.2-6.4-16.3-10.6c-15.8-4.7-23.1-12.9-23.1-25.1c0-14.2,10.7-23.7,28.7-23.7
						c9.7,0,18.6,2.9,25.5,8.5c3.2,2.6,2.6,6.2-0.8,8.6l-4.3,3.1c-3,2.2-5.5,1.7-8.6-0.3c-2.7-1.7-5.9-2.7-9.1-2.7
						c-5.8,0-8.8,2.2-8.8,5.8c0,4.1,3.1,6.5,15.3,10.3c16.6,5.1,24.1,11.8,24.1,24.9c0,15-12.3,24.7-31.4,24.7
						c-11.5,0-21.3-3.4-28.8-9.8c-3.3-2.7-2.7-6.1,0.7-8.6l5.1-3.8c3-2.2,5.7-1.7,8.8,0.6c3.8,2.9,8.3,4.6,13.1,4.6
						C1270.4,263.3,1274,261,1274,257z"/>
				</g>
			</g>
			<g>
				<g>
					<path class="st2" d="M1349,232.9h1.5c0.8,0,1.2,0.4,1.2,1.2v38h20.8c0.8,0,1.2,0.4,1.2,1.2v1.1c0,0.8-0.4,1.2-1.2,1.2H1349
						c-0.8,0-1.2-0.4-1.2-1.2v-40.3C1347.8,233.3,1348.2,232.9,1349,232.9z"/>
					<path class="st2" d="M1419.7,233.8l15.9,40.4c0.3,0.9-0.1,1.4-1,1.4h-1.8c-0.7,0-1.2-0.4-1.4-1l-4.1-10.7h-20.3l-4.1,10.7
						c-0.2,0.6-0.7,1-1.4,1h-1.8c-0.9,0-1.3-0.5-1-1.4l15.9-40.4c0.2-0.6,0.7-1,1.4-1h2.2C1419,232.9,1419.5,233.2,1419.7,233.8z
						 M1426.1,260.4l-8.9-23.4l-8.9,23.4H1426.1z"/>
					<path class="st2" d="M1461.9,236.4c-0.8,0-1.2-0.4-1.2-1.2v-1.1c0-0.8,0.4-1.2,1.2-1.2h28.9c0.8,0,1.2,0.4,1.2,1.2v1.1
						c0,0.8-0.4,1.2-1.2,1.2h-12.5v38c0,0.8-0.4,1.2-1.2,1.2h-1.5c-0.8,0-1.2-0.4-1.2-1.2v-38H1461.9z"/>
					<path class="st2" d="M1537.9,233.8l15.9,40.4c0.3,0.9-0.1,1.4-1,1.4h-1.8c-0.7,0-1.2-0.4-1.4-1l-4.1-10.7h-20.3l-4.1,10.7
						c-0.2,0.6-0.7,1-1.4,1h-1.8c-0.9,0-1.3-0.5-1-1.4l15.9-40.4c0.2-0.6,0.7-1,1.4-1h2.2C1537.2,232.9,1537.7,233.2,1537.9,233.8z
						 M1544.3,260.4l-8.9-23.4l-8.9,23.4H1544.3z"/>
					<path class="st2" d="M1586.7,274.4c0,0.8-0.4,1.2-1.2,1.2h-1.5c-0.8,0-1.2-0.4-1.2-1.2v-40.3c0-0.8,0.4-1.2,1.2-1.2h1.7
						c0.7,0,1.2,0.2,1.5,0.9l16.1,28.2l16.1-28.2c0.3-0.6,0.8-0.9,1.5-0.9h1.7c0.8,0,1.2,0.4,1.2,1.2v40.3c0,0.8-0.4,1.2-1.2,1.2
						h-1.5c-0.8,0-1.2-0.4-1.2-1.2v-34.1l-14.8,26.1c-0.3,0.6-0.8,0.9-1.5,0.9h-0.6c-0.7,0-1.2-0.2-1.5-0.9l-14.8-26.1V274.4z"/>
				</g>
			</g>
			<g>
				<g>
					<path class="st2" d="M554.8,54.5c24.5,0,39.5,13.5,39.5,30.8c0,10.4-5.1,19.9-14.2,25.5c13.2,7.2,18.9,16.6,18.9,28.2
						c0,19.9-17,33.5-43.9,33.5c-26.4,0-43.9-13.1-43.9-33.8c0-11.9,6-22.4,17.6-28.6c-8.7-6.9-12.9-15-12.9-24
						C515.9,67.6,530.9,54.5,554.8,54.5z M555.4,152.8c10.4,0,17.6-4.7,17.6-12.4c0-8-5.4-12.4-26-20.1c-6.4,4.2-9.8,10.8-9.8,17.8
						C537.3,147.2,544.8,152.8,555.4,152.8z M555.3,74.5c-8.8,0-14,4.9-14,11.6c0,6,4.9,10.3,20.2,16.3c4.7-3.3,8-8,8-14.7
						C569.5,79.8,564.1,74.5,555.3,74.5z"/>
				</g>
			</g>
			<g>
				<path class="st2" d="M646.1,77.8h43.4c3.2,0,5,1.8,5,5v4.5c0,3.2-1.8,5-5,5h-30.3v17.1h26.3c3.2,0,5,1.8,5,5v4.5
					c0,3.2-1.8,5-5,5h-26.3v19.3h31.3c3.2,0,5,1.8,5,5v4.5c0,3.2-1.8,5-5,5h-44.4c-3.2,0-5-1.8-5-5V82.9
					C641,79.7,642.9,77.8,646.1,77.8z"/>
				<path class="st2" d="M724.9,117.4v35.4c0,3.2-1.8,5-5,5h-7.3c-3.2,0-5-1.8-5-5v-49.1c0-3.2,1.8-5,5-5h7.3c3.2,0,5,1.8,5,5v1.6
					c4.2-4.3,11.3-8,19.4-8c12.3,0,20.7,7.8,20.7,22.6v32.9c0,3.2-1.8,5-5,5h-7.3c-3.2,0-5-1.8-5-5v-31.1c0-7-3.1-10.9-9.4-10.9
					C732.9,110.9,727.8,113.9,724.9,117.4z"/>
				<path class="st2" d="M806.2,97.3c10.1,0,18.3,3.9,23.9,10.4c2.3,2.6,1.4,5.4-1.7,6.9l-4.3,2.2c-2.7,1.4-4.8,0.6-6.9-1.7
					c-2.6-2.6-5.7-4.1-9.8-4.1c-8.8,0-13.5,6.7-13.5,17.4s4.7,17.4,13.5,17.4c4.1,0,7.2-1.5,9.8-4.1c2.1-2.3,4.1-3,6.9-1.6l4.3,2.1
					c3.1,1.5,4,4.2,1.7,6.9c-5.6,6.5-13.8,10.4-23.9,10.4c-18.4,0-29.9-12.9-29.9-31C776.2,110.2,787.8,97.3,806.2,97.3z"/>
				<path class="st2" d="M842.6,132.1v-28.5c0-3.2,1.8-5,5-5h7.3c3.2,0,5,1.8,5,5v29.5c0,8.3,4.8,12.5,11.3,12.5
					c6.5,0,11.3-4.1,11.3-12.5v-29.5c0-3.2,1.8-5,5-5h7.3c3.2,0,5,1.8,5,5v28.5c0,17.9-11.1,27.1-28.7,27.1
					C853.7,159.2,842.6,150,842.6,132.1z"/>
				<path class="st2" d="M970.2,128.9c0,3.2-1.9,4.9-5.1,4.9h-36.8c1.3,7.4,6.6,11.8,14.9,11.8c3.9,0,7-1.3,9.6-3.4
					c2.4-2.1,4.6-2.6,7.1-0.8l3.8,2.6c2.7,1.9,3.3,4.7,0.8,7.1c-5.7,5.3-13.1,8.1-21.9,8.1c-19.4,0-31.4-12.9-31.4-31
					c0-18.1,11.9-31,29.7-31c17.6,0,29.5,12.8,29.5,31.2V128.9z M928.2,122h24.9c-0.7-7-5.6-11.2-12.3-11.2
					C933.8,110.9,929.2,114.9,928.2,122z"/>
				<path class="st2" d="M999.1,117.4v35.4c0,3.2-1.8,5-5,5h-7.3c-3.2,0-5-1.8-5-5v-49.1c0-3.2,1.8-5,5-5h7.3c3.2,0,5,1.8,5,5v1.6
					c4.2-4.3,11.3-8,19.4-8c12.3,0,20.7,7.8,20.7,22.6v32.9c0,3.2-1.8,5-5,5h-7.3c-3.2,0-5-1.8-5-5v-31.1c0-7-3.1-10.9-9.4-10.9
					C1007.1,110.9,1002,113.9,999.1,117.4z"/>
				<path class="st2" d="M1056.7,134.8V112h-5c-3.2,0-5-1.8-5-5v-3.3c0-3.2,1.8-5,5-5h5V85.9c0-3.2,1.8-5,5-5h7.3c3.2,0,5,1.8,5,5
					v12.7h8.9c3.2,0,5,1.8,5,5v3.3c0,3.2-1.8,5-5,5h-8.9v24.6c0,6.6,2.2,9,9,9c0,0,4.9,1.8,4.9,5v3.3c0,3.1-1.6,5-4.6,5.1
					c-1.7,0.1-3.4,0.1-5.3,0.1C1062.2,159.2,1056.7,152,1056.7,134.8z"/>
				<path class="st2" d="M1135.1,111.1c-0.8-0.1-1.5-0.1-2.3-0.1c-7,0-13.1,3.3-16.6,8.5v33.4c0,3.2-1.8,5-5,5h-7.3
					c-3.2,0-5-1.8-5-5v-49.1c0-3.2,1.8-5,5-5h7.3c3.2,0,5,1.8,5,5v2.3c3.7-5.4,9.4-8.7,17.4-8.7c0,0,3.7,1.9,3.7,5.1v3.7
					C1137.3,109.4,1136.5,111.1,1135.1,111.1z"/>
				<path class="st2" d="M1173.4,159.2c-18.3,0-30.3-12.8-30.3-31s12-31,30.3-31c18.3,0,30.3,12.8,30.3,31
					S1191.7,159.2,1173.4,159.2z M1173.4,110.9c-8,0-12.7,6.3-12.7,17.4s4.7,17.4,12.7,17.4c8,0,12.7-6.3,12.7-17.4
					S1181.4,110.9,1173.4,110.9z"/>
				<path class="st2" d="M1260.2,176.2l7.1-19.4l-21.1-52.3c-1.4-3.5,0.1-5.8,3.9-5.8h7.1c2.9,0,4.7,1.4,5.7,4l12.6,33.5l11.9-33.5
					c0.9-2.7,3-4,5.8-4h7c3.7,0,5.3,2.4,4,5.8l-27.2,73.6c-1,2.7-2.9,4-5.7,4h-7C1260.6,182,1259,179.6,1260.2,176.2z"/>
				<path class="st2" d="M1355.6,77.8h43.4c3.2,0,5,1.8,5,5v4.5c0,3.2-1.8,5-5,5h-30.3v19.3h26.3c3.2,0,5,1.8,5,5v4.5
					c0,3.2-1.8,5-5,5h-26.3v26.6c0,3.2-1.8,5-5,5h-8.1c-3.2,0-5-1.8-5-5V82.9C1350.6,79.7,1352.4,77.8,1355.6,77.8z"/>
				<path class="st2" d="M1469.7,128.9c0,3.2-1.9,4.9-5.1,4.9h-36.8c1.3,7.4,6.6,11.8,14.9,11.8c3.9,0,7-1.3,9.6-3.4
					c2.4-2.1,4.6-2.6,7.1-0.8l3.8,2.6c2.7,1.9,3.3,4.7,0.8,7.1c-5.7,5.3-13.1,8.1-21.9,8.1c-19.4,0-31.4-12.9-31.4-31
					c0-18.1,11.9-31,29.7-31c17.6,0,29.5,12.8,29.5,31.2V128.9z M1427.6,122h24.9c-0.7-7-5.6-11.2-12.3-11.2
					C1433.2,110.9,1428.7,114.9,1427.6,122z"/>
				<path class="st2" d="M1517.4,111.1c-0.8-0.1-1.5-0.1-2.3-0.1c-7,0-13.1,3.3-16.6,8.5v33.4c0,3.2-1.8,5-5,5h-7.3
					c-3.2,0-5-1.8-5-5v-49.1c0-3.2,1.8-5,5-5h7.3c3.2,0,5,1.8,5,5v2.3c3.7-5.4,9.4-8.7,17.4-8.7c0,0,3.7,1.9,3.7,5.1v3.7
					C1519.6,109.4,1518.8,111.1,1517.4,111.1z"/>
				<path class="st2" d="M1537.9,92.7c-5.7,0-10.3-4.3-10.3-10.1c0-5.7,4.6-10.1,10.3-10.1c5.7,0,10.3,4.3,10.3,10.1
					C1548.2,88.3,1543.6,92.7,1537.9,92.7z M1534.2,98.6h7.3c3.2,0,5,1.8,5,5v49.1c0,3.2-1.8,5-5,5h-7.3c-3.2,0-5-1.8-5-5v-49.1
					C1529.2,100.5,1531,98.6,1534.2,98.6z"/>
				<path class="st2" d="M1585,110.9c-3.4,0-6.7,0.9-9.7,2.4c-2.7,1.4-4.8,1.5-7-0.7l-2.4-2.4c-2.5-2.4-2.5-5.1,0.3-7
					c5.9-3.8,13.6-5.9,21.1-5.9c19.5,0,26.6,10.2,26.6,25.5v30.1c0,3.2-1.8,5-5,5h-6.9c-3.2,0-5-1.5-5-4.2
					c-4.1,3.7-9.5,5.6-16.6,5.6c-11.9,0-21.9-7-21.9-19.2s10.1-19.2,21.9-19.2c7.1,0,12.5,1.9,16.6,5.6v-4.6
					C1597.1,114.7,1593.5,110.9,1585,110.9z M1585.2,133.2c-5.7,0-9,2.5-9,6.7c0,4.2,3.3,6.7,9,6.7c4.6,0,8.8-1.5,11.9-4.5v-4.6
					C1594,134.7,1589.8,133.2,1585.2,133.2z"/>
			</g>
			<rect x="512.1" y="308" class="st4" width="1129.6" height="18"/>
			<g>
				<g>
					<path class="st3" d="M520.3,374.1v-24.9h-8.4v-3.6h21.3v3.6h-8.4v24.9H520.3z"/>
					<path class="st3" d="M534.4,374.1v-20.2h4.5v3.1c0.5-1,1.1-1.8,2-2.4c0.8-0.6,1.8-0.9,2.9-0.9h2.8v4h-3.3
						c-0.9,0-1.7,0.3-2.4,0.8c-0.7,0.5-1.2,1.3-1.5,2.3c-0.3,1.1-0.5,2.4-0.5,4v9.2H534.4z"/>
					<path class="st3" d="M557.6,374.6c-1.6,0-2.9-0.3-4-0.8c-1.1-0.6-1.9-1.3-2.5-2.2c-0.6-0.9-0.8-1.9-0.8-3c0-2.1,0.8-3.8,2.3-5
						c1.5-1.2,3.6-1.8,6.1-1.8c1.1,0,2.2,0.1,3.1,0.3c0.9,0.2,1.6,0.4,2.2,0.6v-0.9c0-1.6-0.4-2.7-1.3-3.5c-0.9-0.8-2-1.1-3.4-1.1
						c-1.1,0-2,0.2-2.8,0.7c-0.8,0.4-1.3,1.2-1.6,2.3h-4.3c0.2-1.5,0.7-2.7,1.5-3.7c0.8-1,1.9-1.7,3.1-2.2c1.3-0.5,2.6-0.7,4.1-0.7
						c2.9,0,5.2,0.7,6.8,2.2c1.6,1.5,2.4,3.5,2.4,6.1v5.3c0,1,0.1,1.8,0.2,2.2c0.1,0.5,0.3,0.8,0.6,0.9c0.3,0.1,0.7,0.2,1.2,0.2h0.2
						v3.8h-1c-1.4,0-2.5-0.2-3.4-0.6c-0.9-0.4-1.5-1.2-1.9-2.4c-0.7,1-1.5,1.8-2.7,2.5C560.5,374.2,559.2,374.6,557.6,374.6z
						 M558.5,371.1c1,0,1.9-0.3,2.7-0.8c0.7-0.5,1.3-1.2,1.8-2c0.4-0.8,0.7-1.7,0.8-2.7c-0.6-0.2-1.3-0.3-2.1-0.5
						c-0.8-0.2-1.6-0.2-2.5-0.2c-1.4,0-2.5,0.3-3.3,0.9c-0.7,0.6-1.1,1.4-1.1,2.4c0,0.8,0.3,1.5,1,2.1
						C556.4,370.8,557.3,371.1,558.5,371.1z"/>
					<path class="st3" d="M575.3,374.1v-20.2h4.5v3.2c0.7-1.1,1.6-2,2.8-2.7c1.2-0.7,2.5-1,4-1c2.5,0,4.4,0.8,5.8,2.3
						c1.4,1.5,2.1,3.8,2.1,6.8v11.6H590V363c0-1.9-0.4-3.3-1.2-4.3c-0.8-1-2-1.4-3.5-1.4c-1.6,0-2.9,0.6-3.9,1.7
						c-1,1.1-1.6,2.7-1.6,4.8v10.4H575.3z"/>
					<path class="st3" d="M608.3,374.6c-2.6,0-4.7-0.6-6.4-1.8c-1.7-1.2-2.7-2.9-2.9-5.1h4.6c0.2,1,0.7,1.8,1.6,2.4
						c0.9,0.6,2,0.9,3.3,0.9c1.3,0,2.3-0.3,3-0.8c0.7-0.5,1-1.2,1-1.9c0-0.6-0.2-1.1-0.7-1.4c-0.4-0.3-1.3-0.6-2.5-0.8
						c-0.5-0.1-1-0.2-1.6-0.3c-0.6-0.1-1.2-0.2-1.6-0.3c-1-0.2-2-0.5-2.9-1c-0.9-0.5-1.7-1.1-2.2-1.9c-0.6-0.8-0.9-1.8-0.9-3
						c0-1.8,0.7-3.3,2-4.5c1.3-1.2,3.2-1.8,5.7-1.8c2.4,0,4.4,0.5,5.9,1.6c1.5,1.1,2.3,2.7,2.6,4.8h-4.4c-0.1-1-0.5-1.7-1.3-2.2
						c-0.8-0.5-1.7-0.7-2.7-0.7c-1.1,0-2,0.2-2.7,0.7c-0.7,0.5-1,1-1,1.7c0,1.3,1,2.1,3,2.4c0.3,0.1,0.6,0.1,1,0.2
						c0.4,0.1,0.8,0.1,1.2,0.2c0.4,0.1,0.8,0.1,1.1,0.2c0.7,0.1,1.4,0.2,2.2,0.5s1.4,0.6,2,1c0.6,0.4,1.1,1,1.5,1.6
						c0.4,0.7,0.6,1.5,0.6,2.6c0,1.3-0.3,2.5-1,3.4c-0.7,1-1.6,1.8-2.9,2.3C611.6,374.3,610.1,374.6,608.3,374.6z"/>
					<path class="st3" d="M620.1,357.7v-3.8h11.5v3.8H620.1z M623,374.1v-23.3c0-1.7,0.2-3,0.6-3.9c0.4-0.9,1.1-1.5,2-1.8
						c0.9-0.3,2.1-0.4,3.7-0.4h2.3v3.8h-1.5c-1.1,0-1.8,0.2-2.1,0.5c-0.3,0.3-0.5,1-0.5,2.1v23H623z"/>
					<path class="st3" d="M645.7,374.6c-2,0-3.8-0.4-5.4-1.3c-1.6-0.9-2.9-2.1-3.8-3.7c-0.9-1.6-1.4-3.5-1.4-5.5
						c0-2.1,0.5-4,1.4-5.6c0.9-1.6,2.2-2.8,3.8-3.7c1.6-0.9,3.4-1.3,5.4-1.3c2,0,3.9,0.4,5.4,1.3c1.6,0.9,2.9,2.1,3.8,3.7
						c0.9,1.6,1.4,3.4,1.4,5.6c0,2.1-0.5,3.9-1.4,5.5c-0.9,1.6-2.2,2.8-3.8,3.7C649.6,374.1,647.8,374.6,645.7,374.6z M645.7,370.7
						c1.1,0,2.1-0.3,3-0.8c0.9-0.5,1.6-1.3,2.2-2.2c0.5-1,0.8-2.2,0.8-3.7s-0.3-2.7-0.8-3.7c-0.5-1-1.3-1.7-2.2-2.2
						c-0.9-0.5-1.9-0.8-3-0.8c-1.1,0-2.1,0.3-3,0.8c-0.9,0.5-1.6,1.3-2.2,2.2c-0.6,1-0.8,2.2-0.8,3.7s0.3,2.7,0.8,3.7
						c0.5,1,1.3,1.7,2.2,2.2C643.7,370.5,644.7,370.7,645.7,370.7z"/>
					<path class="st3" d="M661.3,374.1v-20.2h4.5v3.1c0.5-1,1.1-1.8,2-2.4c0.8-0.6,1.8-0.9,2.9-0.9h2.8v4h-3.3
						c-0.9,0-1.7,0.3-2.4,0.8c-0.7,0.5-1.2,1.3-1.5,2.3c-0.3,1.1-0.5,2.4-0.5,4v9.2H661.3z"/>
					<path class="st3" d="M678.7,374.1v-20.2h4.5v2.7c0.7-1,1.5-1.7,2.6-2.3c1.1-0.6,2.3-0.8,3.6-0.8c1.6,0,2.9,0.3,4.1,0.9
						c1.1,0.6,2,1.6,2.6,2.8c0.7-1.2,1.7-2.1,3-2.8c1.2-0.7,2.6-1,4.1-1c2.5,0,4.5,0.8,5.9,2.3c1.4,1.5,2.1,3.8,2.1,6.8v11.6h-4.4
						V363c0-1.9-0.4-3.3-1.1-4.3c-0.7-1-1.9-1.4-3.3-1.4c-1.5,0-2.7,0.6-3.7,1.7c-0.9,1.1-1.4,2.7-1.4,4.8v10.4h-4.5V363
						c0-1.9-0.4-3.3-1.1-4.3c-0.8-1-1.9-1.4-3.3-1.4c-1.5,0-2.7,0.6-3.6,1.7c-1,1.1-1.4,2.7-1.4,4.8v10.4H678.7z"/>
					<path class="st3" d="M723.8,374.6c-1.6,0-2.9-0.3-4-0.8c-1.1-0.6-1.9-1.3-2.5-2.2c-0.6-0.9-0.8-1.9-0.8-3c0-2.1,0.8-3.8,2.3-5
						c1.5-1.2,3.6-1.8,6.1-1.8c1.1,0,2.2,0.1,3.1,0.3c0.9,0.2,1.6,0.4,2.2,0.6v-0.9c0-1.6-0.4-2.7-1.3-3.5c-0.9-0.8-2-1.1-3.4-1.1
						c-1.1,0-2,0.2-2.8,0.7c-0.8,0.4-1.3,1.2-1.6,2.3h-4.3c0.2-1.5,0.7-2.7,1.5-3.7c0.8-1,1.9-1.7,3.1-2.2c1.3-0.5,2.6-0.7,4.1-0.7
						c2.9,0,5.2,0.7,6.8,2.2c1.6,1.5,2.4,3.5,2.4,6.1v5.3c0,1,0.1,1.8,0.2,2.2c0.1,0.5,0.3,0.8,0.6,0.9c0.3,0.1,0.7,0.2,1.2,0.2h0.2
						v3.8h-1c-1.4,0-2.5-0.2-3.4-0.6c-0.9-0.4-1.5-1.2-1.9-2.4c-0.7,1-1.5,1.8-2.7,2.5C726.8,374.2,725.5,374.6,723.8,374.6z
						 M724.7,371.1c1,0,1.9-0.3,2.7-0.8c0.7-0.5,1.3-1.2,1.8-2c0.4-0.8,0.7-1.7,0.8-2.7c-0.6-0.2-1.3-0.3-2.1-0.5
						c-0.8-0.2-1.6-0.2-2.5-0.2c-1.4,0-2.5,0.3-3.3,0.9c-0.7,0.6-1.1,1.4-1.1,2.4c0,0.8,0.3,1.5,1,2.1
						C722.7,370.8,723.6,371.1,724.7,371.1z"/>
					<path class="st3" d="M741.6,374.1v-20.2h4.5v3.2c0.7-1.1,1.6-2,2.8-2.7c1.2-0.7,2.5-1,4-1c2.5,0,4.4,0.8,5.8,2.3
						c1.4,1.5,2.1,3.8,2.1,6.8v11.6h-4.5V363c0-1.9-0.4-3.3-1.2-4.3c-0.8-1-2-1.4-3.5-1.4c-1.6,0-2.9,0.6-3.9,1.7
						c-1,1.1-1.6,2.7-1.6,4.8v10.4H741.6z"/>
					<path class="st3" d="M775.6,374.6c-1.9,0-3.7-0.5-5.2-1.4c-1.5-0.9-2.7-2.2-3.5-3.8c-0.9-1.6-1.3-3.4-1.3-5.4
						c0-2,0.4-3.9,1.3-5.4c0.9-1.6,2-2.8,3.5-3.8c1.5-0.9,3.2-1.4,5.2-1.4c1.6,0,3,0.3,4.2,0.9c1.2,0.6,2.1,1.5,2.8,2.6v-12.2h4.5
						v29.4h-4.5V371c-0.6,0.9-1.5,1.8-2.7,2.5C778.9,374.2,777.4,374.6,775.6,374.6z M776.4,370.7c1.2,0,2.3-0.3,3.2-0.9
						c0.9-0.6,1.7-1.4,2.2-2.4c0.5-1,0.8-2.2,0.8-3.5c0-1.3-0.3-2.5-0.8-3.5c-0.5-1-1.3-1.8-2.2-2.3c-0.9-0.6-2-0.8-3.2-0.8
						c-1.2,0-2.3,0.3-3.2,0.8c-0.9,0.6-1.7,1.3-2.2,2.3c-0.5,1-0.8,2.2-0.8,3.5c0,1.3,0.3,2.5,0.8,3.5c0.5,1,1.3,1.8,2.2,2.4
						C774.2,370.4,775.3,370.7,776.4,370.7z"/>
					<path class="st3" d="M802.7,374.6c-2,0-3.8-0.4-5.4-1.3c-1.6-0.9-2.9-2.1-3.8-3.7c-0.9-1.6-1.4-3.5-1.4-5.5
						c0-2.1,0.5-4,1.4-5.6c0.9-1.6,2.2-2.8,3.8-3.7c1.6-0.9,3.4-1.3,5.4-1.3c2,0,3.9,0.4,5.4,1.3c1.6,0.9,2.9,2.1,3.8,3.7
						c0.9,1.6,1.4,3.4,1.4,5.6c0,2.1-0.5,3.9-1.4,5.5c-0.9,1.6-2.2,2.8-3.8,3.7C806.5,374.1,804.7,374.6,802.7,374.6z M802.7,370.7
						c1.1,0,2.1-0.3,3-0.8c0.9-0.5,1.6-1.3,2.2-2.2c0.5-1,0.8-2.2,0.8-3.7s-0.3-2.7-0.8-3.7c-0.5-1-1.3-1.7-2.2-2.2
						c-0.9-0.5-1.9-0.8-3-0.8c-1.1,0-2.1,0.3-3,0.8c-0.9,0.5-1.6,1.3-2.2,2.2c-0.6,1-0.8,2.2-0.8,3.7s0.3,2.7,0.8,3.7
						c0.5,1,1.3,1.7,2.2,2.2C800.6,370.5,801.6,370.7,802.7,370.7z"/>
					<path class="st3" d="M832.6,374.1v-29.4h4.5v29.4H832.6z"/>
					<path class="st3" d="M849.7,374.6c-1.6,0-2.9-0.3-4-0.8c-1.1-0.6-1.9-1.3-2.5-2.2c-0.6-0.9-0.8-1.9-0.8-3c0-2.1,0.8-3.8,2.3-5
						c1.5-1.2,3.6-1.8,6.1-1.8c1.1,0,2.2,0.1,3.1,0.3c0.9,0.2,1.6,0.4,2.2,0.6v-0.9c0-1.6-0.4-2.7-1.3-3.5c-0.9-0.8-2-1.1-3.4-1.1
						c-1.1,0-2,0.2-2.8,0.7c-0.8,0.4-1.3,1.2-1.6,2.3h-4.3c0.2-1.5,0.7-2.7,1.5-3.7c0.8-1,1.9-1.7,3.1-2.2c1.3-0.5,2.6-0.7,4.1-0.7
						c2.9,0,5.2,0.7,6.8,2.2c1.6,1.5,2.4,3.5,2.4,6.1v5.3c0,1,0.1,1.8,0.2,2.2c0.1,0.5,0.3,0.8,0.6,0.9c0.3,0.1,0.7,0.2,1.2,0.2h0.2
						v3.8h-1c-1.4,0-2.5-0.2-3.4-0.6c-0.9-0.4-1.5-1.2-1.9-2.4c-0.7,1-1.5,1.8-2.7,2.5C852.7,374.2,851.3,374.6,849.7,374.6z
						 M850.6,371.1c1,0,1.9-0.3,2.7-0.8c0.7-0.5,1.3-1.2,1.8-2c0.4-0.8,0.7-1.7,0.8-2.7c-0.6-0.2-1.3-0.3-2.1-0.5
						c-0.8-0.2-1.6-0.2-2.5-0.2c-1.4,0-2.5,0.3-3.3,0.9c-0.7,0.6-1.1,1.4-1.1,2.4c0,0.8,0.3,1.5,1,2.1
						C848.6,370.8,849.5,371.1,850.6,371.1z"/>
					<path class="st3" d="M881.7,350.3v-4.9h4.8v4.9H881.7z M881.9,374.1v-20.2h4.5v20.2H881.9z"/>
					<path class="st3" d="M892.3,374.1v-20.2h4.5v3.2c0.7-1.1,1.6-2,2.8-2.7c1.2-0.7,2.5-1,4-1c2.5,0,4.4,0.8,5.8,2.3
						c1.4,1.5,2.1,3.8,2.1,6.8v11.6h-4.5V363c0-1.9-0.4-3.3-1.2-4.3c-0.8-1-2-1.4-3.5-1.4c-1.6,0-2.9,0.6-3.9,1.7
						c-1,1.1-1.6,2.7-1.6,4.8v10.4H892.3z"/>
					<path class="st3" d="M926.3,374.6c-1.9,0-3.7-0.5-5.2-1.4c-1.5-0.9-2.7-2.2-3.6-3.8c-0.9-1.6-1.3-3.4-1.3-5.4
						c0-2,0.4-3.9,1.3-5.4c0.9-1.6,2-2.8,3.6-3.8c1.5-0.9,3.2-1.4,5.2-1.4c1.6,0,3,0.3,4.2,0.9c1.2,0.6,2.1,1.5,2.8,2.6v-12.2h4.5
						v29.4h-4.5V371c-0.6,0.9-1.5,1.8-2.7,2.5C929.5,374.2,928.1,374.6,926.3,374.6z M927.1,370.7c1.2,0,2.3-0.3,3.2-0.9
						c0.9-0.6,1.7-1.4,2.2-2.4c0.5-1,0.8-2.2,0.8-3.5c0-1.3-0.3-2.5-0.8-3.5c-0.5-1-1.3-1.8-2.2-2.3c-0.9-0.6-2-0.8-3.2-0.8
						c-1.2,0-2.3,0.3-3.2,0.8c-0.9,0.6-1.7,1.3-2.2,2.3c-0.5,1-0.8,2.2-0.8,3.5c0,1.3,0.3,2.5,0.8,3.5c0.5,1,1.3,1.8,2.2,2.4
						C924.8,370.4,925.9,370.7,927.1,370.7z"/>
					<path class="st3" d="M950.8,374.6c-2.3,0-4.1-0.8-5.4-2.3c-1.4-1.5-2-3.8-2-6.8v-11.6h4.5V365c0,1.9,0.4,3.3,1.1,4.3
						c0.7,1,1.8,1.4,3.2,1.4c1.6,0,2.8-0.6,3.7-1.7c0.9-1.1,1.3-2.7,1.3-4.8v-10.4h4.5v20.2h-4.5V371c-0.6,1.1-1.4,2-2.5,2.7
						C953.6,374.3,952.3,374.6,950.8,374.6z"/>
					<path class="st3" d="M975.4,374.6c-2.6,0-4.7-0.6-6.4-1.8c-1.7-1.2-2.7-2.9-2.9-5.1h4.6c0.2,1,0.7,1.8,1.6,2.4
						c0.9,0.6,2,0.9,3.3,0.9c1.3,0,2.3-0.3,3-0.8c0.7-0.5,1-1.2,1-1.9c0-0.6-0.2-1.1-0.7-1.4c-0.4-0.3-1.3-0.6-2.5-0.8
						c-0.5-0.1-1-0.2-1.6-0.3c-0.6-0.1-1.2-0.2-1.6-0.3c-1-0.2-2-0.5-2.9-1c-0.9-0.5-1.7-1.1-2.2-1.9c-0.6-0.8-0.9-1.8-0.9-3
						c0-1.8,0.7-3.3,2-4.5c1.3-1.2,3.2-1.8,5.7-1.8c2.4,0,4.4,0.5,5.9,1.6c1.5,1.1,2.3,2.7,2.6,4.8h-4.4c-0.1-1-0.5-1.7-1.3-2.2
						c-0.8-0.5-1.7-0.7-2.7-0.7c-1.1,0-2,0.2-2.7,0.7c-0.7,0.5-1,1-1,1.7c0,1.3,1,2.1,3,2.4c0.3,0.1,0.6,0.1,1,0.2
						c0.4,0.1,0.8,0.1,1.2,0.2c0.4,0.1,0.8,0.1,1.1,0.2c0.7,0.1,1.4,0.2,2.2,0.5c0.7,0.2,1.4,0.6,2,1c0.6,0.4,1.1,1,1.5,1.6
						c0.4,0.7,0.6,1.5,0.6,2.6c0,1.3-0.3,2.5-1,3.4c-0.7,1-1.6,1.8-2.9,2.3C978.7,374.3,977.2,374.6,975.4,374.6z"/>
					<path class="st3" d="M996,374.1c-1.3,0-2.3-0.1-3.2-0.4c-0.9-0.3-1.5-0.9-2-1.7c-0.4-0.8-0.7-2.1-0.7-3.7v-10.6h-3.5v-3.8h3.5
						v-5.2h4.5v5.2h5.4v3.8h-5.4v10c0,0.8,0.1,1.4,0.2,1.7c0.1,0.4,0.4,0.6,0.8,0.7c0.4,0.1,1,0.2,1.7,0.2h2.4v3.8H996z"/>
					<path class="st3" d="M1004.8,374.1v-20.2h4.5v3.1c0.5-1,1.1-1.8,2-2.4c0.8-0.6,1.8-0.9,2.9-0.9h2.8v4h-3.3
						c-0.9,0-1.7,0.3-2.4,0.8c-0.7,0.5-1.2,1.3-1.5,2.3c-0.3,1.1-0.5,2.4-0.5,4v9.2H1004.8z"/>
					<path class="st3" d="M1022,350.3v-4.9h4.8v4.9H1022z M1022.2,374.1v-20.2h4.5v20.2H1022.2z"/>
					<path class="st3" d="M1039.3,374.6c-1.6,0-2.9-0.3-4-0.8c-1.1-0.6-1.9-1.3-2.5-2.2c-0.6-0.9-0.8-1.9-0.8-3c0-2.1,0.8-3.8,2.3-5
						c1.6-1.2,3.6-1.8,6.1-1.8c1.1,0,2.2,0.1,3.1,0.3s1.6,0.4,2.2,0.6v-0.9c0-1.6-0.4-2.7-1.3-3.5c-0.9-0.8-2-1.1-3.4-1.1
						c-1.1,0-2,0.2-2.8,0.7c-0.8,0.4-1.3,1.2-1.5,2.3h-4.3c0.2-1.5,0.7-2.7,1.5-3.7c0.8-1,1.9-1.7,3.1-2.2c1.3-0.5,2.6-0.7,4.1-0.7
						c2.9,0,5.2,0.7,6.8,2.2c1.6,1.5,2.4,3.5,2.4,6.1v5.3c0,1,0.1,1.8,0.2,2.2c0.1,0.5,0.3,0.8,0.6,0.9c0.3,0.1,0.7,0.2,1.2,0.2h0.2
						v3.8h-1c-1.4,0-2.5-0.2-3.4-0.6c-0.9-0.4-1.5-1.2-1.9-2.4c-0.7,1-1.5,1.8-2.7,2.5C1042.2,374.2,1040.9,374.6,1039.3,374.6z
						 M1040.1,371.1c1,0,1.9-0.3,2.7-0.8s1.3-1.2,1.8-2c0.4-0.8,0.7-1.7,0.8-2.7c-0.6-0.2-1.3-0.3-2.1-0.5c-0.8-0.2-1.6-0.2-2.5-0.2
						c-1.4,0-2.5,0.3-3.3,0.9c-0.7,0.6-1.1,1.4-1.1,2.4c0,0.8,0.3,1.5,1,2.1C1038.1,370.8,1039,371.1,1040.1,371.1z"/>
					<path class="st3" d="M1056.1,380.8v-3.5h1.3c0.4,0,0.8-0.1,1-0.4c0.2-0.3,0.4-0.6,0.4-1.1v-1.4h-2.4v-5.5h6v6.9
						c0,1.4-0.4,2.6-1.2,3.6c-0.8,1-2.1,1.4-3.7,1.4H1056.1z"/>
					<path class="st3" d="M1091.5,374.6c-2,0-3.8-0.4-5.3-1.3c-1.5-0.9-2.7-2.1-3.6-3.7c-0.9-1.6-1.3-3.4-1.3-5.5
						c0-2.1,0.4-4,1.3-5.6c0.9-1.6,2.1-2.9,3.6-3.8c1.5-0.9,3.3-1.3,5.4-1.3c2,0,3.7,0.4,5.2,1.3c1.5,0.9,2.6,2,3.4,3.5
						c0.8,1.5,1.2,3.1,1.2,4.9c0,0.3,0,0.6,0,0.9c0,0.3,0,0.7-0.1,1h-16.8v-3h12.4c-0.1-1.5-0.6-2.7-1.7-3.6c-1-0.9-2.3-1.3-3.7-1.3
						c-1.1,0-2,0.2-2.9,0.7c-0.9,0.5-1.6,1.2-2.2,2.1c-0.5,0.9-0.8,2.1-0.8,3.5v1.1c0,1.4,0.3,2.5,0.8,3.5c0.5,1,1.3,1.7,2.1,2.2
						c0.9,0.5,1.9,0.7,2.9,0.7c1.2,0,2.2-0.3,3-0.8c0.8-0.5,1.4-1.3,1.8-2.2h4.5c-0.4,1.3-1,2.4-1.8,3.4c-0.9,1-1.9,1.8-3.2,2.4
						C1094.6,374.3,1093.2,374.6,1091.5,374.6z"/>
					<path class="st3" d="M1106.7,374.1v-29.4h4.5v29.4H1106.7z"/>
					<path class="st3" d="M1131.5,374.1v-20.2h4.5v2.7c0.7-1,1.5-1.7,2.6-2.3c1.1-0.6,2.3-0.8,3.6-0.8c1.6,0,2.9,0.3,4.1,0.9
						c1.1,0.6,2,1.6,2.6,2.8c0.7-1.2,1.7-2.1,3-2.8c1.2-0.7,2.6-1,4.1-1c2.5,0,4.5,0.8,5.9,2.3c1.4,1.5,2.1,3.8,2.1,6.8v11.6h-4.4
						V363c0-1.9-0.4-3.3-1.1-4.3c-0.7-1-1.9-1.4-3.3-1.4c-1.5,0-2.7,0.6-3.7,1.7c-0.9,1.1-1.4,2.7-1.4,4.8v10.4h-4.5V363
						c0-1.9-0.4-3.3-1.1-4.3c-0.8-1-1.9-1.4-3.3-1.4c-1.5,0-2.7,0.6-3.6,1.7c-1,1.1-1.4,2.7-1.4,4.8v10.4H1131.5z"/>
					<path class="st3" d="M1179.3,374.6c-2,0-3.8-0.4-5.3-1.3c-1.5-0.9-2.7-2.1-3.6-3.7c-0.9-1.6-1.3-3.4-1.3-5.5
						c0-2.1,0.4-4,1.3-5.6c0.9-1.6,2.1-2.9,3.6-3.8c1.5-0.9,3.3-1.3,5.4-1.3c2,0,3.7,0.4,5.2,1.3c1.5,0.9,2.6,2,3.4,3.5
						c0.8,1.5,1.2,3.1,1.2,4.9c0,0.3,0,0.6,0,0.9c0,0.3,0,0.7-0.1,1h-16.8v-3h12.4c-0.1-1.5-0.6-2.7-1.7-3.6c-1-0.9-2.3-1.3-3.7-1.3
						c-1.1,0-2,0.2-2.9,0.7c-0.9,0.5-1.6,1.2-2.2,2.1c-0.5,0.9-0.8,2.1-0.8,3.5v1.1c0,1.4,0.3,2.5,0.8,3.5c0.5,1,1.3,1.7,2.1,2.2
						c0.9,0.5,1.9,0.7,2.9,0.7c1.2,0,2.2-0.3,3-0.8c0.8-0.5,1.4-1.3,1.8-2.2h4.5c-0.4,1.3-1,2.4-1.8,3.4c-0.9,1-1.9,1.8-3.2,2.4
						C1182.4,374.3,1180.9,374.6,1179.3,374.6z"/>
					<path class="st3" d="M1194.5,374.1v-20.2h4.5v3.1c0.5-1,1.1-1.8,2-2.4c0.8-0.6,1.8-0.9,2.9-0.9h2.8v4h-3.3
						c-0.9,0-1.7,0.3-2.4,0.8c-0.7,0.5-1.2,1.3-1.5,2.3c-0.3,1.1-0.5,2.4-0.5,4v9.2H1194.5z"/>
					<path class="st3" d="M1219.2,374.6c-2,0-3.8-0.4-5.4-1.3c-1.6-0.9-2.8-2.1-3.7-3.7c-0.9-1.6-1.3-3.4-1.3-5.5s0.4-3.9,1.3-5.5
						c0.9-1.6,2.1-2.8,3.7-3.7c1.6-0.9,3.4-1.3,5.4-1.3c2.5,0,4.6,0.7,6.3,2c1.7,1.3,2.8,3.1,3.3,5.3h-4.7c-0.3-1.1-0.9-1.9-1.8-2.6
						c-0.9-0.6-2-0.9-3.2-0.9c-1,0-2,0.3-2.8,0.8c-0.9,0.5-1.6,1.3-2.1,2.3c-0.5,1-0.8,2.2-0.8,3.7c0,1.4,0.3,2.7,0.8,3.7
						s1.2,1.8,2.1,2.3c0.9,0.5,1.8,0.8,2.8,0.8c1.3,0,2.3-0.3,3.2-0.9c0.9-0.6,1.5-1.5,1.8-2.6h4.7c-0.4,2.2-1.5,3.9-3.2,5.3
						C1223.8,373.9,1221.7,374.6,1219.2,374.6z"/>
					<path class="st3" d="M1240,374.6c-1.6,0-2.9-0.3-4-0.8c-1.1-0.6-1.9-1.3-2.5-2.2c-0.6-0.9-0.8-1.9-0.8-3c0-2.1,0.8-3.8,2.3-5
						c1.6-1.2,3.6-1.8,6.1-1.8c1.1,0,2.2,0.1,3.1,0.3c0.9,0.2,1.6,0.4,2.2,0.6v-0.9c0-1.6-0.4-2.7-1.3-3.5c-0.9-0.8-2-1.1-3.4-1.1
						c-1.1,0-2,0.2-2.8,0.7c-0.8,0.4-1.3,1.2-1.6,2.3h-4.3c0.2-1.5,0.7-2.7,1.5-3.7c0.8-1,1.9-1.7,3.1-2.2c1.3-0.5,2.6-0.7,4.1-0.7
						c2.9,0,5.2,0.7,6.8,2.2c1.6,1.5,2.4,3.5,2.4,6.1v5.3c0,1,0.1,1.8,0.2,2.2c0.1,0.5,0.3,0.8,0.6,0.9c0.3,0.1,0.7,0.2,1.2,0.2h0.2
						v3.8h-1c-1.4,0-2.5-0.2-3.4-0.6c-0.9-0.4-1.5-1.2-1.9-2.4c-0.7,1-1.5,1.8-2.7,2.5C1243,374.2,1241.6,374.6,1240,374.6z
						 M1240.9,371.1c1,0,1.9-0.3,2.7-0.8s1.3-1.2,1.8-2c0.5-0.8,0.7-1.7,0.8-2.7c-0.6-0.2-1.3-0.3-2.1-0.5c-0.8-0.2-1.6-0.2-2.5-0.2
						c-1.4,0-2.5,0.3-3.3,0.9c-0.7,0.6-1.1,1.4-1.1,2.4c0,0.8,0.3,1.5,1,2.1C1238.8,370.8,1239.8,371.1,1240.9,371.1z"/>
					<path class="st3" d="M1266.6,374.6c-1.9,0-3.7-0.5-5.2-1.4c-1.5-0.9-2.7-2.2-3.6-3.8c-0.9-1.6-1.3-3.4-1.3-5.4
						c0-2,0.4-3.9,1.3-5.4c0.9-1.6,2-2.8,3.6-3.8c1.5-0.9,3.2-1.4,5.2-1.4c1.6,0,3,0.3,4.2,0.9c1.2,0.6,2.1,1.5,2.8,2.6v-12.2h4.5
						v29.4h-4.5V371c-0.6,0.9-1.5,1.8-2.7,2.5C1269.8,374.2,1268.4,374.6,1266.6,374.6z M1267.4,370.7c1.2,0,2.3-0.3,3.2-0.9
						c0.9-0.6,1.7-1.4,2.2-2.4c0.5-1,0.8-2.2,0.8-3.5c0-1.3-0.3-2.5-0.8-3.5c-0.5-1-1.3-1.8-2.2-2.3c-0.9-0.6-2-0.8-3.2-0.8
						c-1.2,0-2.3,0.3-3.2,0.8c-0.9,0.6-1.7,1.3-2.2,2.3s-0.8,2.2-0.8,3.5c0,1.3,0.3,2.5,0.8,3.5c0.5,1,1.3,1.8,2.2,2.4
						C1265.1,370.4,1266.2,370.7,1267.4,370.7z"/>
					<path class="st3" d="M1293.6,374.6c-2,0-3.8-0.4-5.4-1.3c-1.6-0.9-2.9-2.1-3.8-3.7c-0.9-1.6-1.4-3.5-1.4-5.5
						c0-2.1,0.5-4,1.4-5.6c0.9-1.6,2.2-2.8,3.8-3.7c1.6-0.9,3.4-1.3,5.4-1.3c2,0,3.9,0.4,5.4,1.3c1.6,0.9,2.9,2.1,3.8,3.7
						c0.9,1.6,1.4,3.4,1.4,5.6c0,2.1-0.5,3.9-1.4,5.5c-0.9,1.6-2.2,2.8-3.8,3.7C1297.5,374.1,1295.7,374.6,1293.6,374.6z
						 M1293.6,370.7c1.1,0,2.1-0.3,3-0.8c0.9-0.5,1.6-1.3,2.2-2.2c0.5-1,0.8-2.2,0.8-3.7s-0.3-2.7-0.8-3.7c-0.5-1-1.3-1.7-2.2-2.2
						c-0.9-0.5-1.9-0.8-3-0.8c-1.1,0-2.1,0.3-3,0.8c-0.9,0.5-1.6,1.3-2.2,2.2c-0.6,1-0.8,2.2-0.8,3.7s0.3,2.7,0.8,3.7
						c0.5,1,1.3,1.7,2.2,2.2C1291.6,370.5,1292.6,370.7,1293.6,370.7z"/>
					<path class="st3" d="M1323.1,383.1v-3.6h4.2c0.4,0,0.7-0.1,1-0.2c0.3-0.1,0.5-0.3,0.8-0.7c0.3-0.4,0.5-0.9,0.8-1.7l2-4.4
						l-0.3,2.1l-8.9-20.8h4.9l6.1,14.9l6.4-14.9h4.7l-10.9,24.4c-0.5,1.1-0.9,1.9-1.2,2.5c-0.3,0.6-0.7,1.1-1,1.4
						c-0.3,0.3-0.7,0.5-1.1,0.7c-0.4,0.1-1,0.2-1.6,0.2H1323.1z"/>
					<path class="st3" d="M1373.1,374.6c-2,0-3.8-0.4-5.3-1.3c-1.5-0.9-2.7-2.1-3.6-3.7c-0.9-1.6-1.3-3.4-1.3-5.5
						c0-2.1,0.4-4,1.3-5.6c0.9-1.6,2.1-2.9,3.6-3.8c1.6-0.9,3.3-1.3,5.4-1.3c2,0,3.7,0.4,5.2,1.3c1.5,0.9,2.6,2,3.4,3.5
						c0.8,1.5,1.2,3.1,1.2,4.9c0,0.3,0,0.6,0,0.9c0,0.3,0,0.7-0.1,1h-16.8v-3h12.4c-0.1-1.5-0.6-2.7-1.7-3.6c-1-0.9-2.3-1.3-3.7-1.3
						c-1.1,0-2,0.2-2.9,0.7c-0.9,0.5-1.6,1.2-2.2,2.1c-0.5,0.9-0.8,2.1-0.8,3.5v1.1c0,1.4,0.3,2.5,0.8,3.5c0.5,1,1.3,1.7,2.1,2.2
						c0.9,0.5,1.9,0.7,2.9,0.7c1.2,0,2.2-0.3,3-0.8c0.8-0.5,1.4-1.3,1.8-2.2h4.5c-0.4,1.3-1,2.4-1.8,3.4c-0.9,1-1.9,1.8-3.2,2.4
						C1376.2,374.3,1374.7,374.6,1373.1,374.6z"/>
					<path class="st3" d="M1388.3,374.1v-29.4h4.5v29.4H1388.3z"/>
					<path class="st3" d="M1422.5,374.6c-2,0-3.8-0.4-5.4-1.3c-1.6-0.9-2.8-2.1-3.7-3.7c-0.9-1.6-1.3-3.4-1.3-5.5s0.4-3.9,1.3-5.5
						c0.9-1.6,2.1-2.8,3.7-3.7c1.6-0.9,3.4-1.3,5.4-1.3c2.5,0,4.6,0.7,6.3,2c1.7,1.3,2.8,3.1,3.3,5.3h-4.7c-0.3-1.1-0.9-1.9-1.8-2.6
						c-0.9-0.6-2-0.9-3.2-0.9c-1,0-2,0.3-2.8,0.8c-0.9,0.5-1.6,1.3-2.1,2.3c-0.5,1-0.8,2.2-0.8,3.7c0,1.4,0.3,2.7,0.8,3.7
						s1.2,1.8,2.1,2.3c0.9,0.5,1.8,0.8,2.8,0.8c1.3,0,2.3-0.3,3.2-0.9c0.9-0.6,1.5-1.5,1.8-2.6h4.7c-0.4,2.2-1.5,3.9-3.2,5.3
						C1427.1,373.9,1425,374.6,1422.5,374.6z"/>
					<path class="st3" d="M1446.9,374.6c-2,0-3.8-0.4-5.4-1.3c-1.6-0.9-2.9-2.1-3.8-3.7c-0.9-1.6-1.4-3.5-1.4-5.5
						c0-2.1,0.5-4,1.4-5.6c0.9-1.6,2.2-2.8,3.8-3.7c1.6-0.9,3.4-1.3,5.4-1.3c2,0,3.9,0.4,5.4,1.3c1.6,0.9,2.9,2.1,3.8,3.7
						c0.9,1.6,1.4,3.4,1.4,5.6c0,2.1-0.5,3.9-1.4,5.5c-0.9,1.6-2.2,2.8-3.8,3.7C1450.7,374.1,1448.9,374.6,1446.9,374.6z
						 M1446.9,370.7c1.1,0,2.1-0.3,3-0.8c0.9-0.5,1.6-1.3,2.2-2.2c0.5-1,0.8-2.2,0.8-3.7s-0.3-2.7-0.8-3.7c-0.5-1-1.3-1.7-2.2-2.2
						c-0.9-0.5-1.9-0.8-3-0.8c-1.1,0-2.1,0.3-3,0.8c-0.9,0.5-1.6,1.3-2.2,2.2c-0.6,1-0.8,2.2-0.8,3.7s0.3,2.7,0.8,3.7
						c0.5,1,1.3,1.7,2.2,2.2C1444.8,370.5,1445.8,370.7,1446.9,370.7z"/>
					<path class="st3" d="M1462.5,374.1v-20.2h4.5v3.2c0.7-1.1,1.6-2,2.8-2.7c1.2-0.7,2.5-1,4-1c2.5,0,4.4,0.8,5.8,2.3
						c1.4,1.5,2.1,3.8,2.1,6.8v11.6h-4.5V363c0-1.9-0.4-3.3-1.2-4.3c-0.8-1-2-1.4-3.5-1.4s-2.9,0.6-3.9,1.7c-1,1.1-1.5,2.7-1.5,4.8
						v10.4H1462.5z"/>
					<path class="st3" d="M1495.5,374.6c-2.6,0-4.7-0.6-6.4-1.8c-1.7-1.2-2.7-2.9-2.9-5.1h4.6c0.2,1,0.7,1.8,1.6,2.4
						c0.9,0.6,2,0.9,3.3,0.9c1.3,0,2.3-0.3,3-0.8c0.7-0.5,1-1.2,1-1.9c0-0.6-0.2-1.1-0.7-1.4c-0.4-0.3-1.3-0.6-2.5-0.8
						c-0.5-0.1-1-0.2-1.6-0.3c-0.6-0.1-1.2-0.2-1.6-0.3c-1-0.2-2-0.5-2.9-1c-0.9-0.5-1.7-1.1-2.2-1.9c-0.6-0.8-0.9-1.8-0.9-3
						c0-1.8,0.7-3.3,2-4.5c1.3-1.2,3.2-1.8,5.7-1.8c2.4,0,4.4,0.5,5.9,1.6c1.5,1.1,2.3,2.7,2.6,4.8h-4.4c-0.1-1-0.5-1.7-1.3-2.2
						c-0.8-0.5-1.7-0.7-2.7-0.7c-1.1,0-2,0.2-2.7,0.7c-0.7,0.5-1,1-1,1.7c0,1.3,1,2.1,3,2.4c0.3,0.1,0.6,0.1,1,0.2
						c0.4,0.1,0.8,0.1,1.2,0.2c0.4,0.1,0.8,0.1,1.1,0.2c0.7,0.1,1.4,0.2,2.2,0.5s1.4,0.6,2,1c0.6,0.4,1.1,1,1.5,1.6
						c0.4,0.7,0.6,1.5,0.6,2.6c0,1.3-0.3,2.5-1,3.4c-0.7,1-1.6,1.8-2.9,2.3C1498.8,374.3,1497.3,374.6,1495.5,374.6z"/>
					<path class="st3" d="M1516,374.6c-2.3,0-4.1-0.8-5.4-2.3c-1.4-1.5-2-3.8-2-6.8v-11.6h4.5V365c0,1.9,0.4,3.3,1.1,4.3
						c0.7,1,1.8,1.4,3.2,1.4c1.6,0,2.8-0.6,3.7-1.7c0.9-1.1,1.3-2.7,1.3-4.8v-10.4h4.5v20.2h-4.5V371c-0.6,1.1-1.4,2-2.5,2.7
						C1518.8,374.3,1517.5,374.6,1516,374.6z"/>
					<path class="st3" d="M1532.7,374.1v-20.2h4.5v2.7c0.7-1,1.5-1.7,2.6-2.3c1.1-0.6,2.3-0.8,3.6-0.8c1.6,0,2.9,0.3,4.1,0.9
						c1.1,0.6,2,1.6,2.6,2.8c0.7-1.2,1.7-2.1,3-2.8c1.2-0.7,2.6-1,4.1-1c2.5,0,4.5,0.8,5.9,2.3c1.4,1.5,2.1,3.8,2.1,6.8v11.6h-4.4
						V363c0-1.9-0.4-3.3-1.1-4.3c-0.7-1-1.9-1.4-3.3-1.4c-1.5,0-2.7,0.6-3.7,1.7c-0.9,1.1-1.4,2.7-1.4,4.8v10.4h-4.5V363
						c0-1.9-0.4-3.3-1.1-4.3c-0.8-1-1.9-1.4-3.3-1.4c-1.5,0-2.7,0.6-3.6,1.7c-1,1.1-1.4,2.7-1.4,4.8v10.4H1532.7z"/>
					<path class="st3" d="M1571.1,350.3v-4.9h4.8v4.9H1571.1z M1571.2,374.1v-20.2h4.5v20.2H1571.2z"/>
					<path class="st3" d="M1590.6,374.6c-1.9,0-3.7-0.5-5.2-1.4c-1.5-0.9-2.7-2.2-3.6-3.8c-0.9-1.6-1.3-3.4-1.3-5.4
						c0-2,0.4-3.9,1.3-5.4c0.9-1.6,2-2.8,3.6-3.8c1.5-0.9,3.2-1.4,5.2-1.4c1.6,0,3,0.3,4.2,0.9c1.2,0.6,2.1,1.5,2.8,2.6v-12.2h4.5
						v29.4h-4.5V371c-0.6,0.9-1.5,1.8-2.7,2.5C1593.8,374.2,1592.4,374.6,1590.6,374.6z M1591.4,370.7c1.2,0,2.3-0.3,3.2-0.9
						c0.9-0.6,1.7-1.4,2.2-2.4c0.5-1,0.8-2.2,0.8-3.5c0-1.3-0.3-2.5-0.8-3.5c-0.5-1-1.3-1.8-2.2-2.3c-0.9-0.6-2-0.8-3.2-0.8
						c-1.2,0-2.3,0.3-3.2,0.8c-0.9,0.6-1.7,1.3-2.2,2.3c-0.5,1-0.8,2.2-0.8,3.5c0,1.3,0.3,2.5,0.8,3.5c0.5,1,1.3,1.8,2.2,2.4
						C1589.2,370.4,1590.2,370.7,1591.4,370.7z"/>
					<path class="st3" d="M1617.7,374.6c-2,0-3.8-0.4-5.4-1.3c-1.6-0.9-2.9-2.1-3.8-3.7c-0.9-1.6-1.4-3.5-1.4-5.5
						c0-2.1,0.5-4,1.4-5.6c0.9-1.6,2.2-2.8,3.8-3.7c1.6-0.9,3.4-1.3,5.4-1.3c2,0,3.9,0.4,5.4,1.3c1.6,0.9,2.9,2.1,3.8,3.7
						c0.9,1.6,1.4,3.4,1.4,5.6c0,2.1-0.5,3.9-1.4,5.5c-0.9,1.6-2.2,2.8-3.8,3.7C1621.5,374.1,1619.7,374.6,1617.7,374.6z
						 M1617.7,370.7c1.1,0,2.1-0.3,3-0.8c0.9-0.5,1.6-1.3,2.2-2.2c0.5-1,0.8-2.2,0.8-3.7s-0.3-2.7-0.8-3.7c-0.5-1-1.3-1.7-2.2-2.2
						c-0.9-0.5-1.9-0.8-3-0.8c-1.1,0-2.1,0.3-3,0.8c-0.9,0.5-1.6,1.3-2.2,2.2c-0.6,1-0.8,2.2-0.8,3.7s0.3,2.7,0.8,3.7
						c0.5,1,1.3,1.7,2.2,2.2C1615.6,370.5,1616.6,370.7,1617.7,370.7z"/>
					<path class="st3" d="M1633.2,374.1v-20.2h4.5v3.1c0.5-1,1.1-1.8,2-2.4c0.8-0.6,1.8-0.9,2.9-0.9h2.8v4h-3.3
						c-0.9,0-1.7,0.3-2.4,0.8c-0.7,0.5-1.1,1.3-1.5,2.3c-0.3,1.1-0.5,2.4-0.5,4v9.2H1633.2z"/>
				</g>
			</g>
		</g>
		<g>
			<path class="st2" d="M619.3,85c-6.4,0-11.5-5.1-11.5-11.3c0-6.2,5.2-11.3,11.5-11.3c6.4,0,11.5,5.1,11.5,11.3
				C630.8,79.9,625.6,85,619.3,85z M619.3,67.5c-3.5,0-6.4,2.8-6.4,6.2c0,3.4,2.9,6.2,6.4,6.2s6.4-2.8,6.4-6.2
				C625.7,70.2,622.8,67.5,619.3,67.5z"/>
		</g>
	</g>
</g>
</svg>
